<?xml version="1.0" encoding="utf-8"?>
<!-- Generator: Adobe Illustrator 28.0.0, SVG Export Plug-In . SVG Version: 6.00 Build 0)  -->
<svg version="1.1" id="Layer_1" xmlns="http://www.w3.org/2000/svg" xmlns:xlink="http://www.w3.org/1999/xlink" x="0px" y="0px"
	 viewBox="0 0 24 24" style="enable-background:new 0 0 24 24;" xml:space="preserve">
<path d="M11,22v-1c-2.1-0.2-3.9-1.1-5.4-2.6S3.3,15.1,3,13.1H2c-0.3,0-0.5-0.1-0.7-0.3s-0.3-0.4-0.3-0.7c0-0.3,0.1-0.5,0.3-0.7
	s0.4-0.3,0.7-0.3h1C3.3,9,4.1,7.2,5.6,5.7S8.9,3.3,11,3.1v-1c0-0.3,0.1-0.5,0.3-0.7s0.4-0.3,0.7-0.3s0.5,0.1,0.7,0.3S13,1.8,13,2.1
	v1c2.1,0.2,3.9,1.1,5.4,2.6c1.5,1.5,2.4,3.3,2.6,5.4h1c0.3,0,0.5,0.1,0.7,0.3s0.3,0.4,0.3,0.7c0,0.3-0.1,0.5-0.3,0.7
	s-0.4,0.3-0.7,0.3h-1c-0.2,2.1-1.1,3.9-2.6,5.4c-1.5,1.5-3.3,2.4-5.4,2.6v1c0,0.3-0.1,0.5-0.3,0.7C12.5,22.9,12.3,23,12,23
	s-0.5-0.1-0.7-0.3C11.1,22.5,11,22.3,11,22z M12,19c1.9,0,3.6-0.7,5-2s2-3,2-4.9s-0.7-3.6-2-5S13.9,5,12,5S8.4,5.7,7.1,7.1
	s-2.1,3-2.1,5s0.7,3.6,2.1,4.9S10.1,19,12,19z"/>
<circle cx="12" cy="12" r="3.2"/>
</svg>
