<svg xmlns="http://www.w3.org/2000/svg" viewBox="0 0 24 18">
  <path id="done_FILL0_wght400_GRAD0_opsz24" d="M178.674-690.929l13.133-13.59a1.484,1.484,0,0,1,1.1-.481,1.484,1.484,0,0,1,1.1.481,1.588,1.588,0,0,1,.465,1.143,1.588,1.588,0,0,1-.465,1.143l-14.256,14.753a1.463,1.463,0,0,1-1.085.481,1.463,1.463,0,0,1-1.085-.481l-6.663-6.9a1.52,1.52,0,0,1-.446-1.143,1.662,1.662,0,0,1,.484-1.143,1.484,1.484,0,0,1,1.1-.481,1.484,1.484,0,0,1,1.1.481Z" transform="translate(-170.48 705)" fill="#2cba12" />
</svg>
