<?xml version="1.0" encoding="utf-8"?>
<!-- Generator: Adobe Illustrator 28.0.0, SVG Export Plug-In . SVG Version: 6.00 Build 0)  -->
<svg version="1.1" id="Layer_1" xmlns="http://www.w3.org/2000/svg" xmlns:xlink="http://www.w3.org/1999/xlink" x="0px" y="0px"
	 viewBox="0 0 300 300" style="enable-background:new 0 0 300 300;" xml:space="preserve">
<style type="text/css">
	.st0{fill:#DDDDDD;}
	.st1{fill:#F4F4F4;}
	.st2{fill:#CECECE;}
</style>
<g>
	<circle class="st0" cx="150" cy="160.7" r="19.2"/>
	<g>
		<path class="st1" d="M141.2,150.6c-0.4,0-0.8-0.1-1.1-0.4c-0.7-0.6-0.8-1.7-0.2-2.4c2.1-2.5,5.2-4.2,8.5-4.6
			c0.9-0.1,1.8,0.5,1.9,1.4c0.1,0.9-0.5,1.8-1.4,1.9c-2.4,0.3-4.8,1.6-6.4,3.5C142.2,150.4,141.7,150.6,141.2,150.6z"/>
	</g>
	<g>
		<path class="st1" d="M136.5,164.1c-0.8,0-1.4-0.5-1.6-1.3c-0.8-3.2-0.4-6.7,1.1-9.6c0.4-0.8,1.4-1.1,2.3-0.7
			c0.8,0.4,1.1,1.4,0.7,2.3c-1.1,2.2-1.5,4.8-0.9,7.2c0.2,0.9-0.3,1.8-1.2,2C136.8,164.1,136.7,164.1,136.5,164.1z"/>
	</g>
	<path class="st2" d="M148.9,175.1c0,0,5.4,3.2,11.7-0.9c4.6-3,6.6-10,6.6-13.5c0-1.9-1-4-3.4-5.1c-1.8-0.9-4.3-1.2-7.4,1.9
		c-1.5,1.5-2.1,3.6-1.7,5.7c0.4,1.6,0.3,3.5-2.4,3.6C147.7,166.8,145.8,172.9,148.9,175.1z"/>
</g>
</svg>
