<?xml version="1.0" encoding="utf-8"?>
<!-- Generator: Adobe Illustrator 28.0.0, SVG Export Plug-In . SVG Version: 6.00 Build 0)  -->
<svg version="1.1" id="Layer_1" xmlns="http://www.w3.org/2000/svg" xmlns:xlink="http://www.w3.org/1999/xlink" x="0px" y="0px"
	 viewBox="0 0 300 300" style="enable-background:new 0 0 300 300;" xml:space="preserve">
<style type="text/css">
	.st0{fill:#DDDDDD;}
	.st1{fill:#F4F4F4;}
	.st2{fill:#CECECE;}
	.st3{fill:#7ECE00;}
	.st4{fill:#99ED07;}
	.st5{fill:#7ABC08;}
</style>
<g>
	<g>
		
			<ellipse transform="matrix(0.3827 -0.9239 0.9239 0.3827 -40.7487 228.101)" class="st0" cx="150.3" cy="144.5" rx="17.8" ry="17.8"/>
		<g>
			<path class="st1" d="M142.2,135.1c-0.4,0-0.7-0.1-1-0.4c-0.7-0.6-0.7-1.5-0.2-2.2c2-2.3,4.8-3.9,7.9-4.3c0.9-0.1,1.6,0.5,1.7,1.3
				c0.1,0.9-0.5,1.6-1.3,1.7c-2.3,0.3-4.4,1.5-5.9,3.2C143,134.9,142.6,135.1,142.2,135.1z"/>
		</g>
		<g>
			<path class="st1" d="M137.8,147.6c-0.7,0-1.3-0.5-1.5-1.2c-0.7-3-0.4-6.2,1.1-8.9c0.4-0.8,1.3-1.1,2.1-0.7
				c0.8,0.4,1.1,1.3,0.7,2.1c-1.1,2-1.4,4.5-0.8,6.7c0.2,0.8-0.3,1.7-1.1,1.9C138.1,147.6,137.9,147.6,137.8,147.6z"/>
		</g>
		<path class="st2" d="M149.3,157.8c0,0,5,3,10.9-0.8c4.3-2.8,6.1-9.3,6.2-12.6c0-1.7-0.9-3.7-3.2-4.8c-1.6-0.8-4-1.1-6.8,1.8
			c-1.4,1.4-2,3.4-1.5,5.3c0.4,1.5,0.3,3.3-2.2,3.3C148.2,150.1,146.4,155.8,149.3,157.8z"/>
	</g>
	<g>
		<circle class="st3" cx="132.5" cy="161.5" r="12.5"/>
		<g>
			<path class="st4" d="M126.8,154.9c-0.3,0-0.5-0.1-0.7-0.3c-0.5-0.4-0.5-1.1-0.1-1.5c1.4-1.6,3.4-2.7,5.5-3
				c0.6-0.1,1.1,0.3,1.2,0.9c0.1,0.6-0.3,1.1-0.9,1.2c-1.6,0.2-3.1,1-4.1,2.2C127.4,154.8,127.1,154.9,126.8,154.9z"/>
		</g>
		<g>
			<path class="st4" d="M123.8,163.7c-0.5,0-0.9-0.3-1.1-0.8c-0.5-2.1-0.2-4.3,0.7-6.2c0.3-0.5,0.9-0.7,1.5-0.5
				c0.5,0.3,0.7,0.9,0.5,1.5c-0.7,1.4-0.9,3.1-0.6,4.7c0.1,0.6-0.2,1.2-0.8,1.3C123.9,163.7,123.8,163.7,123.8,163.7z"/>
		</g>
		<path class="st5" d="M131.8,170.8c0,0,3.5,2.1,7.6-0.6c3-1.9,4.3-6.5,4.3-8.8c0-1.2-0.6-2.6-2.2-3.3c-1.2-0.6-2.8-0.8-4.8,1.2
			c-1,1-1.4,2.4-1.1,3.7c0.3,1.1,0.2,2.3-1.5,2.3C131,165.4,129.7,169.4,131.8,170.8z"/>
	</g>
	<g>
		<circle class="st3" cx="166.9" cy="161.5" r="12.5"/>
		<g>
			<path class="st4" d="M161.2,154.9c-0.3,0-0.5-0.1-0.7-0.3c-0.5-0.4-0.5-1.1-0.1-1.5c1.4-1.6,3.4-2.7,5.5-3
				c0.6-0.1,1.1,0.3,1.2,0.9c0.1,0.6-0.3,1.1-0.9,1.2c-1.6,0.2-3.1,1-4.1,2.2C161.8,154.8,161.5,154.9,161.2,154.9z"/>
		</g>
		<g>
			<path class="st4" d="M158.2,163.7c-0.5,0-0.9-0.3-1.1-0.8c-0.5-2.1-0.2-4.3,0.7-6.2c0.3-0.5,0.9-0.7,1.5-0.5
				c0.5,0.3,0.7,0.9,0.5,1.5c-0.7,1.4-0.9,3.1-0.6,4.7c0.1,0.6-0.2,1.2-0.8,1.3C158.4,163.7,158.3,163.7,158.2,163.7z"/>
		</g>
		<path class="st5" d="M166.2,170.8c0,0,3.5,2.1,7.6-0.6c3-1.9,4.3-6.5,4.3-8.8c0-1.2-0.6-2.6-2.2-3.3c-1.2-0.6-2.8-0.8-4.8,1.2
			c-1,1-1.4,2.4-1.1,3.7c0.3,1.1,0.2,2.3-1.5,2.3C165.5,165.4,164.2,169.4,166.2,170.8z"/>
	</g>
</g>
</svg>
