<?xml version="1.0" encoding="utf-8"?>
<!-- Generator: Adobe Illustrator 28.0.0, SVG Export Plug-In . SVG Version: 6.00 Build 0)  -->
<svg version="1.1" id="Layer_1" xmlns="http://www.w3.org/2000/svg" xmlns:xlink="http://www.w3.org/1999/xlink" x="0px" y="0px"
	 viewBox="0 0 300 300" style="enable-background:new 0 0 300 300;" xml:space="preserve">
<style type="text/css">
	.st0{fill:#D2F211;}
	.st1{fill:#D0F921;}
	.st2{fill:#BEE828;}
	.st3{fill:#B9DD22;}
	.st4{fill:#F2B853;}
	.st5{fill:#D8990E;}
</style>
<g>
	<path class="st0" d="M167.1,128c0,0,1.5,4.5-7.3,12.2c-3.7,1-6.5,2.7-8.5,4.8c0.4-2,0.8-6-0.4-10.2c-1-29.1-2.4-55.3-2.4-55.3
		l-3,2.4c0,0,3,11.1,1.9,46.4c-1.4-1.7-3.3-3.3-5.8-4.6c-6.9-9.4-7.6-16.8-7.6-16.8l-0.9,1.8c0,0,2.3,16.8,6.7,19.3
		c2.3,1.2,5.3,6.8,7,13c-0.6,9.3-1.4,19.9-2.8,32c-5.6,41.2-4.2,75.9-4.2,75.9h18.3c-3.3-25.6-10.8-30.3-7.6-53.2
		c1.2-8.3,1.3-24.5,1-42.2c2.5-4.4,6.5-7.8,9.1-8.6c4.9-1.4,7.9-16.2,7.9-16.2L167.1,128z"/>
	<g>
		<path class="st1" d="M139.2,71.1c-6.1-2-6.8-5.3-6.7-7.1c0-0.1,0-0.2,0-0.2s-2.5,5.5,5.7,9.2c8.2,3.6,8.2,5.9,8.2,5.9s0-0.1,0-0.4
			C146.2,76.5,145.1,73,139.2,71.1z"/>
		<path class="st2" d="M135.5,66.8c0,0-2.4,0.6-3-2.7c-0.1,1.7,0.6,5.1,6.7,7.1c5.9,1.9,7,5.4,7.2,7.4
			C146.4,76.5,146.1,67.7,135.5,66.8z"/>
		<path class="st1" d="M145.4,77.3l0.4-0.5c0,0,2.2,3.4,0.6,5.1l-0.9-0.2C145.5,81.8,147,80,145.4,77.3z"/>
	</g>
	<g>
		<path class="st1" d="M164.2,117.2c-5-3.9-4.5-7.4-3.8-8.9c0-0.1,0-0.2,0-0.2s-4.2,4.3,2.2,10.6c6.4,6.2,5.7,8.4,5.7,8.4
			s0.1-0.1,0.2-0.4C168.9,124.8,169.1,121.1,164.2,117.2z"/>
		<path class="st2" d="M162.3,111.9c0,0-2.5-0.3-1.9-3.6c-0.7,1.6-1.2,5,3.8,8.9c4.9,3.8,4.7,7.5,4.2,9.4
			C169.1,124.8,171.9,116.5,162.3,111.9z"/>
		<path class="st1" d="M167.9,125.2l0.5-0.3c0,0,0.9,3.9-1.2,5l-0.1-1.9C167.1,128,168.5,128.3,167.9,125.2z"/>
	</g>
	<g>
		<path class="st1" d="M139.8,140.3c-5.5-3.3-5.4-6.7-5-8.4c0-0.1,0-0.2,0-0.2s-3.6,4.8,3.5,10.2c7.2,5.3,6.7,7.6,6.7,7.6
			s0-0.1,0.1-0.4C145.4,147.2,145.1,143.5,139.8,140.3z"/>
		<path class="st2" d="M137.2,135.3c0,0-2.5,0-2.3-3.3c-0.5,1.6-0.5,5.1,5,8.4c5.3,3.2,5.6,6.9,5.4,8.8
			C145.7,147.2,147.4,138.6,137.2,135.3z"/>
		<path class="st1" d="M144.5,147.8l0.4-0.4c0,0,3.9,4.2,1.9,5.5l-0.8-0.4C146,152.6,145.5,150.7,144.5,147.8z"/>
	</g>
	<g>
		<path class="st1" d="M175.8,125.5c4.5,0.9,6.1-1,6.6-2.1l0.1-0.1c0,0-0.3,4.3-6.7,3.8c-6.3-0.5-7.2,0.9-7.2,0.9s0-0.1,0.1-0.3
			C169.5,126.5,171.4,124.7,175.8,125.5z"/>
		<path class="st2" d="M179.5,124.1c0,0,1.3,1.2,2.8-0.7c-0.5,1.1-2.1,3-6.6,2.1c-4.3-0.8-6.3,1-7,2.1
			C169.4,126.4,172.6,121,179.5,124.1z"/>
		<path class="st1" d="M169.8,127.3l-0.1-0.4c0,0-2.5,1.3-2.1,3l0.5,0.1C168.1,130,167.8,128.3,169.8,127.3z"/>
	</g>
	<g>
		<path class="st1" d="M158.3,165c4.6,0.2,5.8-1.9,6.2-3.1c0-0.1,0.1-0.1,0.1-0.1s0.3,4.3-6,4.8s-6.9,2-6.9,2s0-0.1,0.1-0.3
			C152.3,167,153.9,164.9,158.3,165z"/>
		<path class="st2" d="M161.8,163c0,0,1.5,1,2.7-1.1c-0.4,1.2-1.6,3.3-6.2,3.1c-4.4-0.2-6,1.9-6.6,3.2
			C152.2,166.9,154.5,161,161.8,163z"/>
		<path class="st1" d="M152.7,167.7l-0.1-0.4c0,0-2.3,1.7-1.7,3.3l0.6,0.1C151.5,170.6,150.9,169,152.7,167.7z"/>
	</g>
	<g>
		<path class="st1" d="M127.8,116.8c-4.1,0.9-5.6-0.8-6.1-1.8l-0.1-0.1c0,0,0.4,3.9,6.2,3.3c5.8-0.7,6.6,0.6,6.6,0.6s0-0.1-0.1-0.2
			C133.5,117.6,131.7,116,127.8,116.8z"/>
		<path class="st2" d="M124.3,115.6c0,0-1.2,1.1-2.6-0.5c0.5,1,2,2.7,6.1,1.8c3.9-0.9,5.8,0.7,6.5,1.8
			C133.7,117.5,130.6,112.6,124.3,115.6z"/>
		<path class="st1" d="M133.3,118.3v-0.4c0,0,3.3,1,3,2.5l-0.6,0.2C135.9,120.6,135.2,119.2,133.3,118.3z"/>
	</g>
	<g>
		<path class="st2" d="M159.3,42.4c1.9,2.1,3.6,5.8,1.8,12.1c-2.3,7.8-7.9,15.9-11.2,20.3c0.8-0.1,15.7-1.2,17.7-14.4
			C169.4,47.9,160.6,43.1,159.3,42.4z"/>
		<path class="st1" d="M159.3,42.4c-0.1-0.1-0.2-0.1-0.2-0.1c4.3,5.3-2.4,9.2-2.4,9.2c-13.2,6.1-7,23.3-7,23.3h0.1
			c3.3-4.3,9-12.5,11.2-20.3C162.9,48.3,161.2,44.5,159.3,42.4z"/>
		<path class="st1" d="M150.7,73.6v-0.4c0,0-5.6,4.8-3.6,8.7l1.6,0.1C148.6,82,148.3,77.7,150.7,73.6z"/>
	</g>
	<g>
		<path class="st2" d="M126.3,83.5c-1.2,1.3-2.3,3.7-1.1,7.7c1.4,5,5,10.1,7.1,12.9c-0.5,0-10-0.8-11.2-9.1
			C119.9,87,125.5,83.9,126.3,83.5z"/>
		<path class="st1" d="M126.3,83.5C126.4,83.5,126.4,83.4,126.3,83.5c-2.6,3.3,1.6,5.8,1.6,5.8c8.4,3.9,4.4,14.8,4.4,14.8s0,0-0.1,0
			c-2.1-2.8-5.7-7.9-7.1-12.9C124,87.2,125.1,84.8,126.3,83.5z"/>
		<path class="st1" d="M131.8,103.3V103c0,0,3.3,3.3,2.1,5.7l-0.8-0.1C133.1,108.7,133.3,105.9,131.8,103.3z"/>
	</g>
	<path class="st3" d="M158,248.8h-5.7c0,0-1.1-9.6-1.6-12.9s-2.5-23.4-2.5-23.4s1.8-33,1.2-34.2c0,0-0.1-5.3,0.6-6.5
		c0.8-1.2,0.7,7.3,0.7,7.3s-0.8,13.6-0.4,16.5c0.5,2.8,1.7,17.5,2.7,21.4C154.2,220.8,158,248.8,158,248.8z"/>
	<path class="st3" d="M139.8,248.8h2l-0.5-31.3c0,0-1.2-0.2-1.3,0.8C140,219.3,139.8,248.8,139.8,248.8z"/>
	<path class="st2" d="M151.4,153.3l0.4-2.2c0,0,1.6-4.9,4.7-5.7c0,0,4.6-1.7,5.4-2.5c0.9-0.8,2.5-3.2,2.5-3.2s-2.1,5.2-5,5.4
		S154,149,154,149L151.4,153.3z"/>
	<path class="st2" d="M168.6,127.9c0,0-0.7,0.6-0.6,1.1c0,0.5-3.5,10.3-3.5,10.3s2.7-5.7,3.4-8.8
		C168.2,128.3,168.6,127.9,168.6,127.9z"/>
	<path class="st2" d="M147,140.3c0,0.2,1-2.1,0.2-3.8s-3.7-7.8-4.9-7.9c-1.2-0.1-3.4-3.1-3.4-3.1l-2.4-4.8c0,0-0.1,2.9,2.2,5.6
		c1.2,1.5,3.3,2.6,3.3,2.6S147.3,137.8,147,140.3z"/>
	<g>
		<path class="st4" d="M213.7,256.2c-2.9-1.9-5.7-3.9-8.5-5.9c-0.2-0.2-0.4-0.4-0.4-0.6c-0.5-1.6-1.9-3.4-3.8-4.8
			c-1-0.7-1.9-1.2-2.9-1.6c-0.2-0.1-0.4-0.2-0.5-0.4c-0.6-0.8-1.5-1.6-2.4-2.3c-2.3-1.7-4.8-2.4-6.6-2.2c-0.3,0-0.5,0-0.8-0.1
			c-4.4-2.7-9-5.2-13.9-7.3c-0.1-0.1-0.3-0.2-0.4-0.3c-0.7-0.7-1.9-1.4-3.3-1.7c-0.6-0.1-1.1-0.2-1.6-0.2c-0.1,0-0.2,0-0.4-0.1
			c-0.6-0.2-1.3-0.4-2-0.6c-0.2-0.1-0.4-0.2-0.6-0.3c-0.1-0.1-0.3-0.3-0.5-0.4c-0.3-0.2-0.5-0.6-0.5-1c0-0.2,0-0.4-0.1-0.6
			c-0.5-1.3-2.9-1.7-5.3-0.8c-0.5,0.2-1,0.5-1.5,0.8c-0.3,0.2-0.6,0.2-0.9,0.2c-4.2-0.7-8.8-1.1-13.6-1.1c-6.5,0-12.1,0.8-16.9,2.3
			c-0.2,0.1-0.4,0.1-0.7,0c-1.1-0.2-2.6,0-4,0.8c-0.5,0.3-1,0.6-1.4,1c-0.6,0-1,0-1.6,0c-0.1-0.1-0.1-0.1-0.2-0.2
			c-1.3-0.7-3.3,0.6-4.5,2.8c-0.2,0.4-0.4,0.8-0.5,1.2c-0.7,0.5-1.1,0.8-1.8,1.3l0,0c-0.8,0.1-1.4,0.7-1.8,1.7
			c-0.1,0.2-0.2,0.4-0.4,0.5c-3.2,2.5-6.2,5.3-9.2,8.1c-0.2,0.2-0.4,0.3-0.7,0.3c-1.1,0-2.5,0.7-3.7,1.9c-1.1,1-1.7,2.2-1.9,3.2
			c-0.1,0.3-0.2,0.5-0.4,0.7c-2.4,2.1-5,4-7.8,5.8c-1,0.6-0.6,2.2,0.6,2.2h126.8C214.3,258.4,214.7,256.8,213.7,256.2z"/>
		<path class="st5" d="M139.5,229.8l-0.8,0.5c-0.3,0.2-0.4,0.7-0.1,1l0.2,0.2c0.3,0.3,0.8,0.3,1.1,0l0.6-0.8
			c0.1-0.1,0.1-0.3,0.1-0.4l0,0C140.6,229.8,139.9,229.5,139.5,229.8z"/>
		<path class="st5" d="M172.9,248.1l-0.8,0.5c-0.3,0.2-0.4,0.7-0.1,1l0.2,0.2c0.3,0.3,0.8,0.3,1.1,0l0.6-0.8
			c0.1-0.1,0.1-0.3,0.1-0.4l0,0C174,248.1,173.4,247.8,172.9,248.1z"/>
		<path class="st5" d="M146.7,239.3l0.7,1.3c0.3,0.6,1,0.8,1.6,0.4l0.4-0.2c0.6-0.4,0.7-1.2,0.2-1.7l-1-1.1
			c-0.2-0.2-0.4-0.3-0.6-0.3l0,0C146.9,237.5,146.3,238.5,146.7,239.3z"/>
		<path class="st5" d="M150.1,236.1l-0.1,1c0,0.4,0.3,0.8,0.7,0.8h0.3c0.5,0,0.8-0.4,0.7-0.9l-0.2-1c0-0.2-0.1-0.3-0.2-0.4l0,0
			C150.9,235.3,150.1,235.5,150.1,236.1z"/>
		<path class="st5" d="M111.5,246.6l0.7,1.3c0.3,0.6,1,0.8,1.6,0.4l0.4-0.2c0.6-0.4,0.7-1.2,0.2-1.7l-1-1.1
			c-0.2-0.2-0.4-0.3-0.6-0.3l0,0C111.8,244.9,111.1,245.8,111.5,246.6z"/>
		<path class="st5" d="M114.9,243.5l-0.1,1c0,0.4,0.3,0.8,0.7,0.8h0.3c0.5,0,0.8-0.4,0.7-0.9l-0.2-1c0-0.2-0.1-0.3-0.2-0.4l0,0
			C115.7,242.6,115,242.9,114.9,243.5z"/>
		<path class="st5" d="M172,253.4l0.7,1.3c0.3,0.6,1,0.8,1.6,0.4l0.4-0.2c0.6-0.4,0.7-1.2,0.2-1.7l-1-1.1c-0.2-0.2-0.4-0.3-0.6-0.3
			l0,0C172.2,251.7,171.6,252.6,172,253.4z"/>
		<path class="st5" d="M175.4,250.3l-0.1,1c0,0.4,0.3,0.8,0.7,0.8h0.3c0.5,0,0.8-0.4,0.7-0.9l-0.2-1c0-0.2-0.1-0.3-0.2-0.4l0,0
			C176.2,249.4,175.4,249.7,175.4,250.3z"/>
		<path class="st5" d="M178.9,236.8l-0.8,0.5c-0.3,0.2-0.4,0.7-0.1,1l0.2,0.2c0.3,0.3,0.8,0.3,1.1,0l0.6-0.8
			c0.1-0.1,0.1-0.3,0.1-0.4l0,0C180,236.8,179.4,236.5,178.9,236.8z"/>
		<path class="st5" d="M178,242.1l0.7,1.3c0.3,0.6,1,0.8,1.6,0.4l0.4-0.2c0.6-0.4,0.7-1.2,0.2-1.7l-1-1.1c-0.2-0.2-0.4-0.3-0.6-0.3
			l0,0C178.3,240.4,177.6,241.3,178,242.1z"/>
		<path class="st5" d="M181.4,239l-0.1,1c0,0.4,0.3,0.8,0.7,0.8h0.3c0.5,0,0.8-0.4,0.7-0.9l-0.2-1c0-0.2-0.1-0.3-0.2-0.4l0,0
			C182.2,238.1,181.5,238.4,181.4,239z"/>
		<path class="st5" d="M123.1,248.3l-0.8,0.5c-0.3,0.2-0.4,0.7-0.1,1l0.2,0.2c0.3,0.3,0.8,0.3,1.1,0l0.6-0.8
			c0.1-0.1,0.1-0.3,0.1-0.4l0,0C124.2,248.3,123.6,247.9,123.1,248.3z"/>
		<path class="st5" d="M122.2,253.6l0.7,1.3c0.3,0.6,1,0.8,1.6,0.4l0.4-0.2c0.6-0.4,0.7-1.2,0.2-1.7l-1-1.1
			c-0.2-0.2-0.4-0.3-0.6-0.3l0,0C122.5,251.8,121.8,252.8,122.2,253.6z"/>
		<path class="st5" d="M125.6,250.4l-0.1,1c0,0.4,0.3,0.8,0.7,0.8h0.3c0.5,0,0.8-0.4,0.7-0.9l-0.2-1c0-0.2-0.1-0.3-0.2-0.4l0,0
			C126.4,249.6,125.7,249.8,125.6,250.4z"/>
		<path class="st5" d="M104.5,248.1l-0.9-0.1c-0.4,0-0.8,0.3-0.8,0.7v0.3c0,0.4,0.4,0.8,0.8,0.7l0.9-0.2c0.2,0,0.3-0.1,0.4-0.2l0,0
			C105.4,248.8,105.1,248.2,104.5,248.1z"/>
		<path class="st5" d="M100.4,251.6l-0.3,1.4c-0.1,0.6,0.3,1.3,0.9,1.3l0.4,0.1c0.7,0.1,1.3-0.5,1.2-1.2l-0.1-1.5
			c0-0.2-0.1-0.5-0.3-0.7l0,0C101.7,250.4,100.6,250.7,100.4,251.6z"/>
		<path class="st5" d="M105,251.4l-0.7,0.7c-0.3,0.3-0.3,0.8,0,1.1l0.2,0.2c0.3,0.3,0.9,0.2,1.1-0.2l0.5-0.9
			c0.1-0.1,0.1-0.3,0.1-0.5l0,0C106.1,251.2,105.4,251,105,251.4z"/>
	</g>
</g>
</svg>
