<?xml version="1.0" encoding="utf-8"?>
<!-- Generator: Adobe Illustrator 28.0.0, SVG Export Plug-In . SVG Version: 6.00 Build 0)  -->
<svg version="1.1" id="Layer_1" xmlns="http://www.w3.org/2000/svg" xmlns:xlink="http://www.w3.org/1999/xlink" x="0px" y="0px"
	 viewBox="0 0 300 300" style="enable-background:new 0 0 300 300;" xml:space="preserve">
<style type="text/css">
	.st0{fill:#7ABC08;}
	.st1{fill:#D0F921;}
	.st2{fill:#A5CC17;}
	.st3{fill:#8FBA09;}
	.st4{fill:#BEE828;}
	.st5{fill:#F1FF9C;}
</style>
<g>
	<path class="st0" d="M174.8,139.8c0-9.7-7.2-17.5-16-17.5s-16,7.9-16,17.5c0,0.3,0,0.7,0,1c0,0.4-0.1,0.8-0.3,1.1l0,0
		c-0.3,0.4-0.8,0.6-1.3,0.6c-0.1,0-0.3,0-0.4,0c-8.9,0-16,7.9-16,17.5c0,9.7,7.2,17.5,16,17.5c1,0,10.3,0.9,25.2-15.7
		C173.3,153.8,174.8,144,174.8,139.8z"/>
	<path class="st1" d="M174.8,139.8c0-9.7-7.2-17.5-16-17.5s-16,7.9-16,17.5c0,0.3,0,0.7,0,1c0,0.4-0.1,0.8-0.3,1.1l0,0
		c-0.3,0.4-0.8,0.6-1.3,0.6c-0.1,0-0.3,0-0.4,0c-8.9,0-16,7.9-16,17.5c0,9.7,7.2,17.5,16,17.5c1,0,10.3,0.9,25.2-15.7
		C173.3,153.8,174.8,144,174.8,139.8z"/>
	<path class="st2" d="M146.9,142c0.6-1.2,0.4-2.6-0.6-3.4c-0.6-0.5-1.3-0.6-1.9,0.2c-0.3,0.4-0.4,0.8-0.5,1.3
		c-0.1,1.3-0.8,4.3-3.2,4.4c-3.1,0.1-1.9,1.6-1.9,1.6s2.7,2.4,6-1.2C145.8,143.7,146.5,142.7,146.9,142z"/>
	<path class="st3" d="M145.9,139c0.1-0.2-0.1-0.5-0.7-0.4c-0.6,0.1-0.7,0.8-0.7,0.8s-0.1,0.6-0.1,1s-0.3,1.2-0.3,1.2
		s0.1,0.3,0.4-0.1s0.4-1.8,0.4-1.8s0.2-0.8,0.5-0.6C145.6,139.2,145.8,139.1,145.9,139z"/>
	<path class="st3" d="M139.3,145.2c0,0,1.4,0,2.4-0.5s1.3-1,1.3-1s0.1-0.2,0.2-0.1s0,0.3,0,0.3s-0.3,0.8-1.4,1.1
		c-1.1,0.3-2.2,0.4-2.2,0.4h-0.4C139.2,145.2,139.3,145.2,139.3,145.2z"/>
	<path class="st4" d="M160.8,122.5c0.3,1.7,1.4,4.2,4.4,7.5c3.2,3.4,3.4,8.2,2.9,11.8c-0.4,2.9-2.3,5.4-5.1,6.5
		c-4,1.6-9.5,2.2-13.6-3c0,0-4.1-2.7,0.3,4.1c2.6,4,6.8,5.7,10.2,6.3c-3.6,3.8-8.2,7.8-13.4,9.5c-13.4,4.5-19.8,0.2-19.3-11.2
		c0.2-4.6,6.6-8.7,5.5-9.2c-4.8,3-8,8.7-8,15.2c0,9.7,7.2,17.5,16,17.5c1,0,10.3,0.9,25.2-15.7c7.3-8.1,8.8-17.9,8.8-22
		C174.8,130.9,168.7,123.6,160.8,122.5z"/>
	<path class="st5" d="M152.6,126.2c0,0,2.5-3.3,5.2-1.3c0,0,0.1,0,0.1,0.1c1.5,1.2,0.9,3.6-1,3.9c-0.5,0.1-1.1,0.2-1.7,0.2
		C150.9,129.2,152.2,126.7,152.6,126.2z"/>
	<path class="st5" d="M131.9,147.6c0,0,1.7-2.2,3.5-0.9c0,0,0,0,0.1,0c1,0.8,0.6,2.5-0.7,2.7c-0.3,0.1-0.7,0.1-1.1,0.1
		C130.7,149.6,131.6,147.9,131.9,147.6z"/>
	<path class="st5" d="M149.2,130.2c0,0,0.1-1.7,1.4-1.6l0,0c0.8,0,1.1,1,0.6,1.5c-0.1,0.1-0.3,0.3-0.5,0.4
		C149.3,131.6,149.2,130.5,149.2,130.2z"/>
</g>
</svg>
