<?xml version="1.0" encoding="utf-8"?>
<!-- Generator: Adobe Illustrator 28.0.0, SVG Export Plug-In . SVG Version: 6.00 Build 0)  -->
<svg version="1.1" id="Layer_1" xmlns="http://www.w3.org/2000/svg" xmlns:xlink="http://www.w3.org/1999/xlink" x="0px" y="0px"
	 viewBox="0 0 300 300" style="enable-background:new 0 0 300 300;" xml:space="preserve">
<style type="text/css">
	.st0{fill:#D0F921;}
	.st1{fill:#BEE828;}
	.st2{fill:#F2B853;}
	.st3{fill:#D8990E;}
</style>
<g>
	<g>
		<path class="st0" d="M138.7,126.9c-5.4-1.7-6-4.7-5.9-6.2c0-0.1,0-0.1,0-0.2c0,0-2.2,4.9,5,8.1c7.2,3.2,7.2,5.2,7.2,5.2
			s0-0.1,0-0.3C144.9,131.7,143.9,128.6,138.7,126.9z"/>
		<path class="st1" d="M135.5,123.1c0,0-2.1,0.5-2.7-2.4c-0.1,1.5,0.5,4.5,5.9,6.2c5.2,1.7,6.2,4.8,6.3,6.5
			C145.1,131.7,144.9,123.9,135.5,123.1z"/>
		<path class="st0" d="M144.2,132.4l0.3-0.4c0,0,2,3,0.6,4.5l-0.8-0.2C144.3,136.3,145.7,134.7,144.2,132.4z"/>
	</g>
	<g>
		<path class="st1" d="M156.5,101.7c1.7,1.8,3.2,5.1,1.6,10.7c-2,6.9-7,14-9.9,17.9c0.7,0,13.8-1.1,15.6-12.7
			C165.4,106.5,157.6,102.2,156.5,101.7z"/>
		<path class="st0" d="M156.5,101.7c-0.1,0-0.2-0.1-0.2-0.1c3.8,4.6-2.1,8.1-2.1,8.1c-11.6,5.4-6.1,20.5-6.1,20.5s0,0,0.1,0
			c2.9-3.8,7.9-11,9.9-17.9C159.6,106.8,158.1,103.5,156.5,101.7z"/>
		<path class="st0" d="M148.9,129.1v-0.4c0,0-4.9,4.3-3.2,7.6l0.6-0.1C146.3,136.4,146.8,132.8,148.9,129.1z"/>
	</g>
	<path class="st0" d="M144.8,133.9l2.2-0.6c0,0-6.2,21.2,6.6,40.7h-6.7C146.9,174,138,148.6,144.8,133.9z"/>
	<g>
		<path class="st2" d="M205.9,197.3c-2.5-1.7-5-3.4-7.4-5.2c-0.2-0.1-0.3-0.3-0.4-0.5c-0.5-1.4-1.7-3-3.4-4.2
			c-0.8-0.6-1.7-1.1-2.6-1.4c-0.2-0.1-0.3-0.2-0.4-0.3c-0.6-0.7-1.3-1.4-2.1-2c-2-1.5-4.2-2.2-5.8-1.9c-0.2,0-0.5,0-0.7-0.1
			c-3.9-2.4-7.9-4.6-12.3-6.5c-0.1-0.1-0.2-0.1-0.3-0.2c-0.6-0.6-1.7-1.2-2.9-1.5c-0.5-0.1-1-0.2-1.4-0.2c-0.1,0-0.2,0-0.3-0.1
			c-0.6-0.2-1.1-0.4-1.7-0.6c-0.2-0.1-0.4-0.2-0.5-0.3s-0.2-0.3-0.4-0.4c-0.3-0.2-0.4-0.5-0.4-0.9c0-0.2,0-0.4-0.1-0.5
			c-0.5-1.2-2.5-1.5-4.7-0.7c-0.5,0.2-0.9,0.4-1.3,0.7c-0.2,0.2-0.5,0.2-0.8,0.2c-3.7-0.6-7.7-1-12-1c-5.8,0-10.6,0.7-14.8,2
			c-0.2,0.1-0.4,0-0.6,0c-0.9-0.2-2.3,0-3.5,0.7c-0.5,0.2-0.9,0.5-1.2,0.8c-0.5,0-0.9,0-1.4,0c-0.1-0.1-0.1-0.1-0.2-0.1
			c-1.1-0.6-2.9,0.5-4,2.5c-0.2,0.3-0.3,0.7-0.5,1c-0.6,0.4-1,0.7-1.6,1.1l0,0c-0.7,0.1-1.3,0.6-1.6,1.5c-0.1,0.2-0.2,0.3-0.3,0.5
			c-2.9,2.2-5.5,4.7-8.1,7.1c-0.2,0.2-0.4,0.3-0.6,0.3c-1,0-2.2,0.6-3.2,1.6c-0.9,0.9-1.5,1.9-1.7,2.8c0,0.2-0.2,0.5-0.4,0.6
			c-2.1,1.8-4.4,3.5-6.8,5.1c-0.9,0.6-0.5,1.9,0.5,1.9h111.5C206.4,199.2,206.8,197.9,205.9,197.3z"/>
		<path class="st3" d="M140.5,174.1l-0.7,0.5c-0.3,0.2-0.3,0.6-0.1,0.9l0.2,0.2c0.3,0.3,0.7,0.3,1,0l0.5-0.7
			c0.1-0.1,0.1-0.2,0.1-0.4l0,0C141.5,174.1,140.9,173.8,140.5,174.1z"/>
		<path class="st3" d="M170,190.2l-0.7,0.5c-0.3,0.2-0.3,0.6-0.1,0.9l0.2,0.2c0.3,0.3,0.7,0.3,1,0l0.5-0.7c0.1-0.1,0.1-0.2,0.1-0.4
			l0,0C170.9,190.2,170.4,189.9,170,190.2z"/>
		<path class="st3" d="M146.9,182.4l0.6,1.2c0.3,0.5,0.9,0.7,1.4,0.4l0.3-0.2c0.5-0.3,0.6-1.1,0.2-1.5l-0.9-1
			c-0.1-0.2-0.3-0.3-0.6-0.3l0,0C147.1,180.9,146.5,181.7,146.9,182.4z"/>
		<path class="st3" d="M149.9,179.7l-0.1,0.9c0,0.4,0.2,0.7,0.6,0.7h0.2c0.4,0,0.7-0.4,0.6-0.8l-0.2-0.9c0-0.1-0.1-0.3-0.2-0.4l0,0
			C150.6,178.9,149.9,179.1,149.9,179.7z"/>
		<path class="st3" d="M115.9,188.9l0.6,1.2c0.3,0.5,0.9,0.7,1.4,0.4l0.3-0.2c0.5-0.3,0.6-1.1,0.2-1.5l-0.9-1
			c-0.1-0.2-0.3-0.3-0.6-0.3l0,0C116.1,187.4,115.5,188.2,115.9,188.9z"/>
		<path class="st3" d="M118.9,186.1l-0.1,0.9c0,0.4,0.2,0.7,0.6,0.7h0.2c0.4,0,0.7-0.4,0.6-0.8L120,186c0-0.1-0.1-0.3-0.2-0.4l0,0
			C119.6,185.4,118.9,185.6,118.9,186.1z"/>
		<path class="st3" d="M169.2,194.9l0.6,1.2c0.3,0.5,0.9,0.7,1.4,0.4l0.3-0.2c0.5-0.3,0.6-1.1,0.2-1.5l-0.9-1
			c-0.1-0.2-0.3-0.3-0.6-0.3l0,0C169.4,193.4,168.8,194.2,169.2,194.9z"/>
		<path class="st3" d="M172.1,192.1L172,193c0,0.4,0.2,0.7,0.6,0.7h0.2c0.4,0,0.7-0.4,0.6-0.8l-0.2-0.9c0-0.1-0.1-0.3-0.2-0.4l0,0
			C172.8,191.4,172.2,191.6,172.1,192.1z"/>
		<path class="st3" d="M175.3,180.3l-0.7,0.5c-0.3,0.2-0.3,0.6-0.1,0.9l0.2,0.2c0.3,0.3,0.7,0.3,1,0l0.5-0.7
			c0.1-0.1,0.1-0.2,0.1-0.4l0,0C176.3,180.3,175.7,180,175.3,180.3z"/>
		<path class="st3" d="M174.5,184.9l0.6,1.2c0.3,0.5,0.9,0.7,1.4,0.4l0.3-0.2c0.5-0.3,0.6-1.1,0.2-1.5l-0.9-1
			c-0.1-0.2-0.3-0.3-0.6-0.3l0,0C174.7,183.4,174.1,184.2,174.5,184.9z"/>
		<path class="st3" d="M177.4,182.2l-0.1,0.9c0,0.4,0.2,0.7,0.6,0.7h0.2c0.4,0,0.7-0.4,0.6-0.8l-0.2-0.9c0-0.1-0.1-0.3-0.2-0.4l0,0
			C178.1,181.4,177.5,181.7,177.4,182.2z"/>
		<path class="st3" d="M126.1,190.4l-0.7,0.5c-0.3,0.2-0.3,0.6-0.1,0.9l0.2,0.2c0.3,0.3,0.7,0.3,1,0l0.5-0.7
			c0.1-0.1,0.1-0.2,0.1-0.4l0,0C127.1,190.4,126.5,190.1,126.1,190.4z"/>
		<path class="st3" d="M125.3,195l0.6,1.2c0.3,0.5,0.9,0.7,1.4,0.4l0.3-0.2c0.5-0.3,0.6-1.1,0.2-1.5l-0.9-1
			c-0.1-0.2-0.3-0.3-0.6-0.3l0,0C125.5,193.5,125,194.3,125.3,195z"/>
		<path class="st3" d="M128.3,192.3l-0.1,0.9c0,0.4,0.2,0.7,0.6,0.7h0.2c0.4,0,0.7-0.4,0.6-0.8l-0.2-0.9c0-0.1-0.1-0.3-0.2-0.4l0,0
			C129,191.5,128.4,191.7,128.3,192.3z"/>
		<path class="st3" d="M109.7,190.2l-0.8-0.1c-0.4,0-0.7,0.3-0.7,0.6v0.2c0,0.4,0.4,0.7,0.7,0.6l0.8-0.2c0.1,0,0.3-0.1,0.3-0.2l0,0
			C110.5,190.9,110.3,190.3,109.7,190.2z"/>
		<path class="st3" d="M106.1,193.3l-0.3,1.3c-0.1,0.6,0.3,1.1,0.8,1.2h0.4c0.6,0.1,1.1-0.4,1.1-1l-0.1-1.3c0-0.2-0.1-0.4-0.2-0.6
			l0,0C107.3,192.2,106.3,192.5,106.1,193.3z"/>
		<path class="st3" d="M110.2,193.1l-0.6,0.6c-0.3,0.3-0.3,0.7,0,1l0.2,0.2c0.3,0.3,0.8,0.2,1-0.2l0.4-0.8c0.1-0.1,0.1-0.3,0.1-0.4
			l0,0C111.2,192.9,110.6,192.7,110.2,193.1z"/>
	</g>
</g>
</svg>
