<?xml version="1.0" encoding="utf-8"?>
<!-- Generator: Adobe Illustrator 28.0.0, SVG Export Plug-In . SVG Version: 6.00 Build 0)  -->
<svg version="1.1" id="Layer_1" xmlns="http://www.w3.org/2000/svg" xmlns:xlink="http://www.w3.org/1999/xlink" x="0px" y="0px"
	 viewBox="0 0 300 300" style="enable-background:new 0 0 300 300;" xml:space="preserve">
<style type="text/css">
	.st0{fill:#74A508;}
	.st1{fill:#79B20B;}
	.st2{fill:#7ABC08;}
	.st3{fill:#7ECE00;}
	.st4{fill:#8CD807;}
	.st5{fill:#A2E217;}
	.st6{fill:#A59050;}
	.st7{fill:#968148;}
</style>
<g>
	<path class="st0" d="M180.1,149.5c-0.3-0.5-0.7-0.9-1.1-1.3c0.3-0.4,0.5-0.8,0.7-1.3c0.7-1.9,0.2-4-1.1-5.4
		c0.8-0.6,1.4-1.4,1.7-2.4c1-2.8-0.5-5.8-3.2-6.8c0,0,0,0-0.1,0c-0.2-0.9-0.7-1.7-1.3-2.4c0.4-0.5,0.7-1.1,0.9-1.8
		c0.8-2.3,0.5-4.7-0.6-6.6c0-0.5,0-1-0.2-1.5c-0.7-2.6-3.2-4.3-5.8-4c-0.5-1.4-1.7-2.5-3-3c0-0.3-0.1-0.7-0.2-1
		c-0.5-2-2.1-3.4-4-3.9c0-0.7-0.1-1.3-0.2-2c-1.1-4.3-5.5-6.9-9.8-5.8c-0.1,0-0.3,0.1-0.4,0.1c-0.6-0.6-1.3-1.2-2.2-1.5
		c-0.5-0.2-1-0.3-1.5-0.3c-1.6-1.1-3.7-1.6-5.7-1.3c-4-7.5-13-11.2-21.3-8.3c-0.1,0-0.2,0.1-0.3,0.1l0.1,0.1c0.1,0,0.3-0.1,0.4-0.1
		c4.3-1.1,8.7,1.5,9.8,5.8c0.2,0.7,0.2,1.3,0.2,2c1.9,0.4,3.5,1.9,4,3.9c0.1,0.3,0.1,0.7,0.2,1c1.3,0.5,2.4,1.6,3,3
		c2.6-0.3,5.1,1.4,5.8,4c0.1,0.5,0.2,1,0.2,1.5c1.1,2,1.4,4.4,0.6,6.6c-0.2,0.6-0.5,1.2-0.9,1.8c0.6,0.7,1.1,1.5,1.3,2.4
		c0,0,0,0,0.1,0c2.8,1,4.2,4,3.2,6.8c-0.4,1-1,1.8-1.7,2.4c1.3,1.4,1.8,3.5,1.1,5.4c-0.2,0.5-0.4,0.9-0.7,1.3
		c0.4,0.4,0.8,0.8,1.1,1.3c2.5,3.7,1.5,8.7-2.1,11.2c-0.6,0.4-1.2,0.7-1.8,0.9c0.2,1.9-0.6,3.9-2.3,5.1c-0.3,0.2-0.6,0.4-0.9,0.5
		c-0.1,1.4-0.7,2.8-1.8,3.8c1.1,2.4,0.4,5.2-1.8,6.8c-0.4,0.3-0.9,0.5-1.4,0.7c-0.2,0.3-0.5,0.5-0.8,0.8c-2,3.3-5.1,5.9-9.1,7.3
		c-0.6,0.2-1.2,0.4-1.8,0.5c-0.9,0.8-2.2,1.3-3.5,1.3c-0.5,0-1-0.1-1.5-0.2c-0.3,0.2-0.6,0.3-0.9,0.4c-0.4,0.2-0.9,0.2-1.3,0.3
		c-1,1-2.3,1.6-3.8,1.6c-0.5,0-0.9-0.1-1.4-0.2c-0.5,0-1-0.1-1.6-0.2c-0.7-0.2-1.3-0.4-1.8-0.7c-0.6,0.7-1.4,1.2-2.3,1.5
		c0,0,0,0,0,0.1c-0.7,2.9-3.7,4.6-6.5,3.8c-1-0.3-1.9-0.8-2.5-1.5c-1.3,1.4-3.3,2.1-5.3,1.6c-0.5-0.1-1-0.3-1.4-0.6
		c-0.3,0.4-0.7,0.8-1.2,1.2c-1.4,1.1-3,1.7-4.6,1.8c0.9,1.8,2.7,3,4.8,3c1,0,2-0.3,2.8-0.8c0.9,1.7,2.7,2.9,4.7,2.9
		c1.4,0,2.7-0.6,3.7-1.5c0.4,0.1,0.8,0.1,1.3,0.1c0.2,0.3,0.4,0.6,0.6,0.9c1.3,1.6,3.4,2.3,5.2,1.9c0.3,0.6,0.6,1.2,1,1.7
		c2.8,3.4,7.9,4,11.3,1.2c0.4-0.4,0.8-0.8,1.2-1.2c0.4,0.3,0.9,0.5,1.4,0.6c2,0.5,4-0.2,5.3-1.6c0.7,0.7,1.5,1.3,2.5,1.5
		c2.9,0.7,5.8-1,6.5-3.8c0,0,0,0,0-0.1c0.9-0.3,1.7-0.8,2.3-1.5c0.6,0.3,1.2,0.6,1.8,0.7c0.5,0.1,1.1,0.2,1.6,0.2
		c0.4,0.1,0.9,0.2,1.4,0.2c1.5,0,2.8-0.6,3.8-1.6c0.4,0,0.9-0.1,1.3-0.3c0.3-0.1,0.6-0.3,0.9-0.4c0.5,0.1,1,0.2,1.5,0.2
		c1.4,0,2.6-0.5,3.5-1.3c0.6-0.1,1.2-0.3,1.8-0.5c3.9-1.4,7-4,9.1-7.3c0.3-0.2,0.5-0.5,0.8-0.8c0.5-0.2,0.9-0.4,1.4-0.7
		c2.2-1.5,2.9-4.4,1.8-6.8c1.1-1,1.8-2.4,1.8-3.8c0.3-0.1,0.6-0.3,0.9-0.5c1.7-1.2,2.5-3.1,2.3-5.1c0.6-0.2,1.2-0.5,1.8-0.9
		C181.6,158.1,182.6,153.1,180.1,149.5z"/>
	<path class="st1" d="M91.5,183c0.4,0.3,0.9,0.5,1.4,0.6c2,0.5,4-0.2,5.3-1.6c0.7,0.7,1.5,1.3,2.5,1.5c2.9,0.7,5.8-1,6.5-3.8
		c0,0,0,0,0-0.1c0.9-0.3,1.7-0.8,2.3-1.5c0.6,0.3,1.2,0.6,1.8,0.7c0.5,0.1,1.1,0.2,1.6,0.2c0.4,0.1,0.9,0.2,1.4,0.2
		c1.5,0,2.8-0.6,3.8-1.6c0.4,0,0.9-0.1,1.3-0.3c0.3-0.1,0.6-0.3,0.9-0.4c0.5,0.1,1,0.2,1.5,0.2c1.4,0,2.6-0.5,3.5-1.3
		c0.6-0.1,1.2-0.3,1.8-0.5c3.9-1.4,7-4,9.1-7.3c0.3-0.2,0.5-0.5,0.8-0.8c0.5-0.2,0.9-0.4,1.4-0.7c2.2-1.5,2.9-4.4,1.8-6.8
		c1.1-1,1.8-2.4,1.8-3.8c0.3-0.1,0.6-0.3,0.9-0.5c1.7-1.2,2.5-3.1,2.3-5.1c0.6-0.2,1.2-0.5,1.8-0.9c3.7-2.5,4.6-7.5,2.1-11.2
		c-0.3-0.5-0.7-0.9-1.1-1.3c0.3-0.4,0.5-0.8,0.7-1.3c0.7-1.9,0.2-4-1.1-5.4c0.8-0.6,1.4-1.4,1.7-2.4c1-2.8-0.5-5.8-3.2-6.8
		c0,0,0,0-0.1,0c-0.2-0.9-0.7-1.7-1.3-2.4c0.4-0.5,0.7-1.1,0.9-1.8c0.8-2.3,0.5-4.7-0.6-6.6c0-0.5,0-1-0.2-1.5
		c-0.7-2.6-3.2-4.3-5.8-4c-0.5-1.4-1.7-2.5-3-3c0-0.3-0.1-0.7-0.2-1c-0.5-2-2.1-3.4-4-3.9c0-0.7-0.1-1.3-0.2-2
		c-1.1-4.3-5.5-6.9-9.8-5.8c-0.1,0-0.3,0.1-0.4,0.1l-0.1-0.1c-1.1,0.4-2.2,0.9-3.1,1.5c-2.9-0.8-6.1,0-8.2,2.3
		c-3.9-1.6-8.3-1.9-12.6-0.4c-4.2,1.5-7.5,4.4-9.5,8c-3.5,0.1-6.6,2.5-7.5,6c-0.2,0.7-0.2,1.3-0.2,2c-1.9,0.4-3.5,1.9-4,3.9
		c-0.1,0.3-0.1,0.7-0.2,1c-1.3,0.5-2.4,1.6-3,3c-2.6-0.3-5.1,1.4-5.8,4c-0.1,0.5-0.2,1-0.2,1.5c-1.1,2-1.4,4.4-0.6,6.6
		c0.2,0.6,0.5,1.2,0.9,1.8c-0.6,0.7-1.1,1.5-1.3,2.4c0,0,0,0-0.1,0c-2.8,1-4.2,4-3.2,6.8c0.4,1,1,1.8,1.7,2.4
		c-1.3,1.4-1.8,3.5-1.1,5.4c0.2,0.5,0.4,0.9,0.7,1.3c-0.4,0.4-0.8,0.8-1.1,1.3c-2.5,3.7-1.5,8.7,2.1,11.2c0.6,0.4,1.2,0.7,1.8,0.9
		c-0.2,1.9,0.6,3.9,2.3,5.1c0.3,0.2,0.6,0.4,0.9,0.5c0.1,1.4,0.7,2.8,1.8,3.8c-1.1,2.4-0.4,5.2,1.8,6.8c0.4,0.3,0.9,0.5,1.4,0.7
		c1.5,1.7,3.6,2.8,6.1,2.8c0.7,0,1.3-0.1,2-0.3c0.4,0.8,1,1.5,1.8,2c0,0,0,0,0,0.1c0,0.8,0.2,1.6,0.6,2.3c1.6-0.1,3.3-0.7,4.6-1.8
		C90.7,183.8,91.1,183.4,91.5,183z"/>
	<path class="st1" d="M236.5,154.5c-0.3-0.5-0.7-0.9-1.1-1.3c0.3-0.4,0.5-0.8,0.7-1.3c0.7-1.9,0.2-4-1.1-5.4
		c0.8-0.6,1.4-1.4,1.7-2.4c1-2.8-0.5-5.8-3.2-6.8c0,0,0,0-0.1,0c-0.2-0.9-0.7-1.7-1.3-2.4c0.4-0.5,0.7-1.1,0.9-1.8
		c0.8-2.3,0.5-4.7-0.6-6.6c0-0.5,0-1-0.2-1.5c-0.7-2.6-3.2-4.3-5.8-4c-0.5-1.4-1.7-2.5-3-3c0-0.3-0.1-0.7-0.2-1
		c-0.5-2-2.1-3.4-4-3.9c0-0.7-0.1-1.3-0.2-2c-1.1-4.3-5.5-6.9-9.8-5.8c-0.1,0-0.3,0.1-0.4,0.1c-0.6-0.6-1.3-1.2-2.2-1.5
		c-0.5-0.2-1-0.3-1.5-0.3c-1.6-1.1-3.7-1.6-5.7-1.3c-4-7.5-13-11.2-21.3-8.3c-1.2,0.4-2.4,1-3.4,1.6c-2.9-0.8-6.1,0-8.2,2.3
		c-3.9-1.6-8.3-1.9-12.6-0.4c-4.2,1.5-7.5,4.4-9.5,8c-3.5,0.1-6.6,2.5-7.5,6c-0.2,0.7-0.2,1.3-0.2,2c-1.9,0.4-3.5,1.9-4,3.9
		c-0.1,0.3-0.1,0.7-0.2,1c-1.3,0.5-2.4,1.6-3,3c-2.6-0.3-5.1,1.4-5.8,4c-0.1,0.5-0.2,1-0.2,1.5c-1.1,2-1.4,4.4-0.6,6.6
		c0.2,0.6,0.5,1.2,0.9,1.8c-0.6,0.7-1.1,1.5-1.3,2.4c0,0,0,0-0.1,0c-2.8,1-4.2,4-3.2,6.8c0.4,1,1,1.8,1.7,2.4
		c-1.3,1.4-1.8,3.5-1.1,5.4c0.2,0.5,0.4,0.9,0.7,1.3c-0.4,0.4-0.8,0.8-1.1,1.3c-2.5,3.7-1.5,8.7,2.1,11.2c0.6,0.4,1.2,0.7,1.8,0.9
		c-0.2,1.9,0.6,3.9,2.3,5.1c0.3,0.2,0.6,0.4,0.9,0.5c0.1,1.4,0.7,2.8,1.8,3.8c-1.1,2.4-0.4,5.2,1.8,6.8c0.4,0.3,0.9,0.5,1.4,0.7
		c1.5,1.7,3.6,2.8,6.1,2.8c0.7,0,1.3-0.1,2-0.3c0.4,0.8,1,1.5,1.8,2c0,0,0,0,0,0.1c0,3,2.4,5.3,5.3,5.3c1,0,2-0.3,2.8-0.8
		c0.9,1.7,2.7,2.9,4.7,2.9c1.4,0,2.7-0.6,3.7-1.5c0.4,0.1,0.8,0.1,1.3,0.1c0.2,0.3,0.4,0.6,0.6,0.9c1.3,1.6,3.4,2.3,5.3,1.9
		c0.3,0.6,0.6,1.2,1,1.7c2.8,3.4,7.9,4,11.3,1.2c0.4-0.4,0.8-0.8,1.2-1.2c0.4,0.3,0.9,0.5,1.4,0.6c2,0.5,4-0.2,5.3-1.6
		c0.7,0.7,1.5,1.3,2.5,1.5c2.9,0.7,5.8-1,6.5-3.8c0,0,0,0,0-0.1c0.9-0.3,1.7-0.8,2.3-1.5c0.6,0.3,1.2,0.6,1.8,0.7
		c0.5,0.1,1.1,0.2,1.6,0.2c0.4,0.1,0.9,0.2,1.4,0.2c1.5,0,2.8-0.6,3.8-1.6c0.4,0,0.9-0.1,1.3-0.3c0.3-0.1,0.6-0.3,0.9-0.4
		c0.5,0.1,1,0.2,1.5,0.2c1.4,0,2.6-0.5,3.5-1.3c0.6-0.1,1.2-0.3,1.8-0.5c3.9-1.4,7-4,9.1-7.3c0.3-0.2,0.5-0.5,0.8-0.8
		c0.5-0.2,0.9-0.4,1.4-0.7c2.2-1.5,2.9-4.4,1.8-6.8c1.1-1,1.8-2.4,1.8-3.8c0.3-0.1,0.6-0.3,0.9-0.5c1.7-1.2,2.5-3.1,2.3-5.1
		c0.6-0.2,1.2-0.5,1.8-0.9C238,163.1,239,158.1,236.5,154.5z"/>
	<path class="st2" d="M228.1,125.7c-0.5-0.1-1-0.2-1.5-0.4c-0.3,0.1-0.6,0.2-1,0.3c-0.5,0.1-0.9,0.1-1.4,0.1c-1.1,0.8-2.5,1.2-4,1
		c-0.5-0.1-0.9-0.2-1.3-0.4c-0.5-0.1-1-0.3-1.5-0.5c-0.6-0.3-1.2-0.6-1.7-1c-0.7,0.6-1.6,1-2.5,1.2c0,0,0,0,0,0.1
		c-1.2,2.7-4.3,4-7,2.8c-1-0.4-1.7-1.1-2.3-1.9c-1.5,1.2-3.6,1.6-5.5,0.8c-0.5-0.2-0.9-0.5-1.3-0.8c-0.4,0.4-0.8,0.7-1.3,1
		c-3.8,2.3-8.7,1-11-2.8c-0.3-0.6-0.6-1.2-0.8-1.8c-1.9,0.1-3.9-0.8-4.9-2.6c-0.2-0.3-0.3-0.6-0.4-1c-0.4,0-0.8-0.1-1.2-0.3
		c-1.1,0.8-2.4,1.1-3.8,0.9c-2-0.3-3.7-1.7-4.3-3.6c-0.9,0.4-1.9,0.6-2.9,0.4c-2.9-0.4-4.9-3.1-4.5-6.1c0,0,0,0,0-0.1
		c-0.7-0.6-1.2-1.4-1.5-2.3c-0.6,0.1-1.3,0.1-2,0c-2.4-0.3-4.4-1.7-5.6-3.6c-0.4-0.2-0.9-0.5-1.3-0.9c-2-1.8-2.3-4.8-0.8-6.9
		c-1-1.1-1.4-2.6-1.3-4c-0.3-0.2-0.6-0.4-0.8-0.6c-1.5-1.4-2.1-3.5-1.5-5.4c-0.6-0.3-1.1-0.7-1.6-1.1c-1-0.9-1.7-2-2.1-3.2
		c0.1-0.2,0.3-0.4,0.4-0.6c0.1-0.5,0.2-1,0.4-1.5c1-2.5,3.7-3.8,6.3-3.1c0.7-1.3,2-2.2,3.4-2.5c0.1-0.3,0.2-0.7,0.3-1
		c0.8-1.9,2.6-3.1,4.5-3.3c0.1-0.6,0.3-1.3,0.5-1.9s0.6-1.1,0.9-1.6c-3.2-0.8-6.7-0.7-10.1,0.5c-4.2,1.5-7.5,4.4-9.5,8
		c-3.5,0.1-6.6,2.5-7.5,6c-0.2,0.7-0.2,1.3-0.2,2c-1.9,0.4-3.5,1.9-4,3.9c-0.1,0.3-0.1,0.7-0.2,1c-1.3,0.5-2.4,1.6-3,3
		c-2.6-0.3-5.1,1.4-5.8,4c-0.1,0.5-0.2,1-0.2,1.5c-1.1,2-1.4,4.4-0.6,6.6c0.2,0.6,0.5,1.2,0.9,1.8c-0.6,0.7-1.1,1.5-1.3,2.4
		c0,0,0,0-0.1,0c-2.8,1-4.2,4-3.2,6.8c0.4,1,1,1.8,1.7,2.4c-1.3,1.4-1.8,3.5-1.1,5.4c0.2,0.5,0.4,0.9,0.7,1.3
		c-0.4,0.4-0.8,0.8-1.1,1.3c-2.5,3.7-1.5,8.7,2.1,11.2c0.6,0.4,1.2,0.7,1.8,0.9c-0.2,1.9,0.6,3.9,2.3,5.1c0.3,0.2,0.6,0.4,0.9,0.5
		c0.1,1.4,0.7,2.8,1.8,3.8c-1.1,2.4-0.4,5.2,1.8,6.8c0.4,0.3,0.9,0.5,1.4,0.7c1.5,1.7,3.6,2.8,6.1,2.8c0.7,0,1.3-0.1,2-0.3
		c0.4,0.8,1,1.5,1.8,2c0,0,0,0,0,0.1c0,3,2.4,5.3,5.3,5.3c1,0,2-0.3,2.8-0.8c0.9,1.7,2.7,2.9,4.7,2.9c1.4,0,2.7-0.6,3.7-1.5
		c0.4,0.1,0.8,0.1,1.3,0.1c0.2,0.3,0.4,0.6,0.6,0.9c1.3,1.6,3.4,2.3,5.3,1.9c0.3,0.6,0.6,1.2,1,1.7c2.8,3.4,7.9,4,11.3,1.2
		c0.4-0.4,0.8-0.8,1.2-1.2c0.4,0.3,0.9,0.5,1.4,0.6c2,0.5,4-0.2,5.3-1.6c0.7,0.7,1.5,1.3,2.5,1.5c2.9,0.7,5.8-1,6.5-3.8
		c0,0,0,0,0-0.1c0.9-0.3,1.7-0.8,2.3-1.5c0.6,0.3,1.2,0.6,1.8,0.7c0.5,0.1,1.1,0.2,1.6,0.2c0.4,0.1,0.9,0.2,1.4,0.2
		c1.5,0,2.8-0.6,3.8-1.6c0.4,0,0.9-0.1,1.3-0.3c0.3-0.1,0.6-0.3,0.9-0.4c0.5,0.1,1,0.2,1.5,0.2c1.4,0,2.6-0.5,3.5-1.3
		c0.6-0.1,1.2-0.3,1.8-0.5c3.9-1.4,7-4,9.1-7.3c0.3-0.2,0.5-0.5,0.8-0.8c0.5-0.2,0.9-0.4,1.4-0.7c2.2-1.5,2.9-4.4,1.8-6.8
		c1.1-1,1.8-2.4,1.8-3.8c0.3-0.1,0.6-0.3,0.9-0.5c1.7-1.2,2.5-3.1,2.3-5.1c0.6-0.2,1.2-0.5,1.8-0.9c3.7-2.5,4.6-7.5,2.1-11.2
		c0-0.1-0.1-0.1-0.1-0.2c-0.2,0-0.4,0.1-0.6,0.1C230.7,125.5,229.4,125.9,228.1,125.7z"/>
	<path class="st3" d="M189.5,105.3c-0.4,0.3-0.9,0.5-1.4,0.7c-0.2,0.3-0.5,0.5-0.8,0.8c-2,3.3-5.1,5.9-9.1,7.3
		c-0.6,0.2-1.2,0.4-1.8,0.5c-0.9,0.8-2.2,1.3-3.5,1.3c-0.5,0-1-0.1-1.5-0.2c-0.3,0.2-0.6,0.3-0.9,0.4c-0.4,0.2-0.9,0.2-1.3,0.3
		c-1,1-2.3,1.6-3.8,1.6c-0.5,0-0.9-0.1-1.4-0.2c-0.5,0-1-0.1-1.6-0.2c-0.7-0.2-1.3-0.4-1.8-0.7c-0.6,0.7-1.4,1.2-2.3,1.5
		c0,0,0,0,0,0.1c-0.7,2.9-3.7,4.6-6.5,3.8c-1-0.3-1.9-0.8-2.5-1.5c-1.3,1.4-3.3,2.1-5.3,1.6c-0.5-0.1-1-0.3-1.4-0.6
		c-0.3,0.4-0.7,0.8-1.2,1.2c-3.4,2.8-8.5,2.3-11.3-1.2c-0.4-0.5-0.8-1.1-1-1.7c-1.9,0.4-3.9-0.2-5.2-1.9c-0.2-0.3-0.4-0.6-0.6-0.9
		c-0.4,0-0.8,0-1.3-0.1c-1,0.9-2.2,1.5-3.7,1.5c-2.1,0-3.9-1.2-4.7-2.9c-0.8,0.5-1.8,0.8-2.8,0.8c-3,0-5.3-2.4-5.3-5.3
		c0,0,0,0,0-0.1c-0.8-0.5-1.4-1.2-1.8-2c-0.6,0.2-1.3,0.3-2,0.3c-2.4,0-4.6-1.1-6.1-2.8c-0.5-0.2-0.9-0.4-1.4-0.7
		c-2.2-1.5-2.9-4.4-1.8-6.8c-1.1-1-1.8-2.4-1.8-3.8c-0.3-0.1-0.6-0.3-0.9-0.5c-1.7-1.2-2.5-3.1-2.3-5.1c-0.6-0.2-1.2-0.5-1.8-0.9
		c-1.1-0.8-2-1.7-2.6-2.9c-0.8,1.8-1,3.9-0.2,6c0.2,0.6,0.5,1.2,0.9,1.8c-0.6,0.7-1.1,1.5-1.3,2.4c0,0,0,0-0.1,0
		c-2.8,1-4.2,4-3.2,6.8c0.4,1,1,1.8,1.7,2.4c-1.3,1.4-1.8,3.5-1.1,5.4c0.2,0.5,0.4,0.9,0.7,1.3c-0.4,0.4-0.8,0.8-1.1,1.3
		c-2.5,3.7-1.5,8.7,2.1,11.2c0.6,0.4,1.2,0.7,1.8,0.9c-0.2,1.9,0.6,3.9,2.3,5.1c0.3,0.2,0.6,0.4,0.9,0.5c0.1,1.4,0.7,2.8,1.8,3.8
		c-1.1,2.4-0.4,5.2,1.8,6.8c0.4,0.3,0.9,0.5,1.4,0.7c1.5,1.7,3.6,2.8,6.1,2.8c0.7,0,1.3-0.1,2-0.3c0.4,0.8,1,1.5,1.8,2
		c0,0,0,0,0,0.1c0,3,2.4,5.3,5.3,5.3c1,0,2-0.3,2.8-0.8c0.9,1.7,2.7,2.9,4.7,2.9c1.4,0,2.7-0.6,3.7-1.5c0.4,0.1,0.8,0.1,1.3,0.1
		c0.2,0.3,0.4,0.6,0.6,0.9c1.3,1.6,3.4,2.3,5.2,1.9c0.3,0.6,0.6,1.2,1,1.7c2.8,3.4,7.9,4,11.3,1.2c0.4-0.4,0.8-0.8,1.2-1.2
		c0.4,0.3,0.9,0.5,1.4,0.6c2,0.5,4-0.2,5.3-1.6c0.7,0.7,1.5,1.3,2.5,1.5c2.9,0.7,5.8-1,6.5-3.8c0,0,0,0,0-0.1
		c0.9-0.3,1.7-0.8,2.3-1.5c0.6,0.3,1.2,0.6,1.8,0.7c0.5,0.1,1.1,0.2,1.6,0.2c0.4,0.1,0.9,0.2,1.4,0.2c1.5,0,2.8-0.6,3.8-1.6
		c0.4,0,0.9-0.1,1.3-0.3c0.3-0.1,0.6-0.3,0.9-0.4c0.5,0.1,1,0.2,1.5,0.2c1.4,0,2.6-0.5,3.5-1.3c0.6-0.1,1.2-0.3,1.8-0.5
		c3.9-1.4,7-4,9.1-7.3c0.3-0.2,0.5-0.5,0.8-0.8c0.5-0.2,0.9-0.4,1.4-0.7c2.2-1.5,2.9-4.4,1.8-6.8c1.1-1,1.8-2.4,1.8-3.8
		c0.3-0.1,0.6-0.3,0.9-0.5c1.7-1.2,2.5-3.1,2.3-5.1c0.6-0.2,1.2-0.5,1.8-0.9c3.7-2.5,4.6-7.5,2.1-11.2c-0.3-0.5-0.7-0.9-1.1-1.3
		c0.3-0.4,0.5-0.8,0.7-1.3c0.7-1.9,0.2-4-1.1-5.4c0.8-0.6,1.4-1.4,1.7-2.4c1-2.8-0.5-5.8-3.2-6.8c0,0,0,0-0.1,0
		c-0.2,1.1-0.8,2.2-1.7,3C192.5,100.9,191.7,103.8,189.5,105.3z"/>
	<path class="st4" d="M191.7,93.1c0.4-0.5,0.7-1.1,0.9-1.8c0.8-2.3,0.5-4.7-0.6-6.6c0-0.5,0-1-0.2-1.5c-0.7-2.6-3.2-4.3-5.8-4
		c-0.5-1.4-1.7-2.5-3-3c0-0.3-0.1-0.7-0.2-1c-0.5-2-2.1-3.4-4-3.9c0-0.7-0.1-1.3-0.2-2c-1.1-4.3-5.5-6.9-9.8-5.8
		c-0.1,0-0.3,0.1-0.4,0.1c-0.6-0.6-1.3-1.2-2.2-1.5c-0.5-0.2-1-0.3-1.5-0.3c-1.6-1.1-3.7-1.6-5.7-1.3c-4-7.5-13-11.2-21.3-8.3
		c-1.2,0.4-2.4,1-3.4,1.6c-2.9-0.8-6.1,0-8.2,2.3c-3.9-1.6-8.3-1.9-12.6-0.4c-4.2,1.5-7.5,4.4-9.5,8c-3.5,0.1-6.6,2.5-7.5,6
		c-0.2,0.7-0.2,1.3-0.2,2c-1.9,0.4-3.5,1.9-4,3.9c-0.1,0.3-0.1,0.7-0.2,1c-1.3,0.5-2.4,1.6-3,3c-2.6-0.3-5.1,1.4-5.8,4
		c-0.1,0.5-0.2,1-0.2,1.5c-0.1,0.2-0.2,0.4-0.3,0.7c0.6,1.1,1.5,2.1,2.6,2.9c0.6,0.4,1.2,0.7,1.8,0.9c-0.2,1.9,0.6,3.9,2.3,5.1
		c0.3,0.2,0.6,0.4,0.9,0.5c0.1,1.4,0.7,2.8,1.8,3.8c-1.1,2.4-0.4,5.2,1.8,6.8c0.4,0.3,0.9,0.5,1.4,0.7c1.5,1.7,3.6,2.8,6.1,2.8
		c0.7,0,1.3-0.1,2-0.3c0.4,0.8,1,1.5,1.8,2c0,0,0,0,0,0.1c0,3,2.4,5.3,5.3,5.3c1,0,2-0.3,2.8-0.8c0.9,1.7,2.7,2.9,4.7,2.9
		c1.4,0,2.7-0.6,3.7-1.5c0.4,0.1,0.8,0.1,1.3,0.1c0.2,0.3,0.4,0.6,0.6,0.9c1.3,1.6,3.4,2.3,5.2,1.9c0.3,0.6,0.6,1.2,1,1.7
		c2.8,3.4,7.9,4,11.3,1.2c0.4-0.4,0.8-0.8,1.2-1.2c0.4,0.3,0.9,0.5,1.4,0.6c2,0.5,4-0.2,5.3-1.6c0.7,0.7,1.5,1.3,2.5,1.5
		c2.9,0.7,5.8-1,6.5-3.8c0,0,0,0,0-0.1c0.9-0.3,1.7-0.8,2.3-1.5c0.6,0.3,1.2,0.6,1.8,0.7c0.5,0.1,1.1,0.2,1.6,0.2
		c0.4,0.1,0.9,0.2,1.4,0.2c1.5,0,2.8-0.6,3.8-1.6c0.4,0,0.9-0.1,1.3-0.3c0.3-0.1,0.6-0.3,0.9-0.4c0.5,0.1,1,0.2,1.5,0.2
		c1.4,0,2.6-0.5,3.5-1.3c0.6-0.1,1.2-0.3,1.8-0.5c3.9-1.4,7-4,9.1-7.3c0.3-0.2,0.5-0.5,0.8-0.8c0.5-0.2,0.9-0.4,1.4-0.7
		c2.2-1.5,2.9-4.4,1.8-6.8c0.9-0.8,1.5-1.9,1.7-3l0,0C192.8,94.6,192.4,93.8,191.7,93.1z"/>
	<path class="st3" d="M232.1,122.4c0.7-1.9,0.2-4-1.1-5.4c0.8-0.6,1.4-1.4,1.7-2.4c1-2.8-0.5-5.8-3.2-6.8c0,0,0,0-0.1,0
		c-0.2-0.9-0.7-1.7-1.3-2.4c0.4-0.5,0.7-1.1,0.9-1.8c0.8-2.3,0.5-4.7-0.6-6.6c0-0.5,0-1-0.2-1.5c-0.7-2.6-3.2-4.3-5.8-4
		c-0.5-1.4-1.7-2.5-3-3c0-0.3-0.1-0.7-0.2-1c-0.5-2-2.1-3.4-4-3.9c0-0.7-0.1-1.3-0.2-2c-1.1-4.3-5.5-6.9-9.8-5.8
		c-0.1,0-0.3,0.1-0.4,0.1c-0.6-0.6-1.3-1.2-2.2-1.5c-0.5-0.2-1-0.3-1.5-0.3c-1.6-1.1-3.7-1.6-5.7-1.3c-4-7.5-13-11.2-21.3-8.3
		c-1.2,0.4-2.4,1-3.4,1.6c-2.9-0.8-6.1,0-8.2,2.3c-0.8-0.3-1.7-0.6-2.5-0.8c-0.3,0.5-0.7,1-0.9,1.6c-0.3,0.6-0.4,1.3-0.5,1.9
		c-1.9,0.1-3.7,1.3-4.5,3.3c-0.1,0.3-0.2,0.7-0.3,1c-1.4,0.3-2.6,1.2-3.4,2.5c-2.5-0.7-5.2,0.6-6.3,3.1c-0.2,0.5-0.3,1-0.4,1.5
		c-0.2,0.2-0.3,0.4-0.4,0.6c0.4,1.2,1.1,2.3,2.1,3.2c0.5,0.5,1.1,0.8,1.6,1.1c-0.5,1.9,0,4,1.5,5.4c0.3,0.2,0.5,0.5,0.8,0.6
		c-0.1,1.4,0.3,2.9,1.3,4c-1.5,2.2-1.2,5.1,0.8,6.9c0.4,0.4,0.8,0.6,1.3,0.9c1.2,1.9,3.2,3.3,5.6,3.6c0.7,0.1,1.3,0.1,2,0
		c0.3,0.9,0.8,1.7,1.5,2.3c0,0,0,0,0,0.1c-0.4,2.9,1.6,5.6,4.5,6.1c1,0.2,2,0,2.9-0.4c0.6,1.8,2.2,3.3,4.3,3.6
		c1.4,0.2,2.8-0.2,3.8-0.9c0.4,0.1,0.8,0.2,1.2,0.3c0.1,0.3,0.3,0.6,0.4,1c1.1,1.8,3,2.7,4.9,2.6c0.2,0.6,0.4,1.2,0.8,1.8
		c2.3,3.8,7.2,5.1,11,2.8c0.5-0.3,0.9-0.6,1.3-1c0.4,0.3,0.8,0.6,1.3,0.8c1.9,0.8,4,0.4,5.5-0.8c0.6,0.8,1.3,1.5,2.3,1.9
		c2.7,1.2,5.9-0.1,7-2.8c0,0,0,0,0-0.1c0.9-0.2,1.8-0.6,2.5-1.2c0.5,0.4,1.1,0.7,1.7,1c0.5,0.2,1,0.4,1.5,0.5
		c0.4,0.2,0.9,0.3,1.3,0.4c1.5,0.2,2.9-0.2,4-1c0.4,0,0.9,0,1.4-0.1c0.3-0.1,0.7-0.2,1-0.3c0.5,0.2,1,0.4,1.5,0.4
		c1.3,0.2,2.6-0.1,3.7-0.8c0.2,0,0.4-0.1,0.6-0.1c-0.3-0.4-0.6-0.8-0.9-1.1C231.7,123.3,231.9,122.8,232.1,122.4z"/>
	<path class="st0" d="M189.8,194.1c0.2-0.6,0.1-1.3-0.4-1.7c0.2-0.2,0.4-0.4,0.5-0.8c0.3-0.9-0.1-1.8-1-2.2l0,0
		c-0.1-0.3-0.2-0.5-0.4-0.8c0.1-0.2,0.2-0.4,0.3-0.6c0.3-0.7,0.2-1.5-0.2-2.1c0-0.2,0-0.3-0.1-0.5c-0.2-0.8-1-1.3-1.8-1.3
		c-0.2-0.4-0.5-0.8-0.9-1c0-0.1,0-0.2-0.1-0.3c-0.2-0.6-0.7-1.1-1.3-1.2c0-0.2,0-0.4-0.1-0.6c-0.4-1.4-1.7-2.2-3.1-1.8h-0.1
		c-0.2-0.2-0.4-0.4-0.7-0.5c-0.2-0.1-0.3-0.1-0.5-0.1c-0.5-0.4-1.2-0.5-1.8-0.4c-1.3-2.4-4.1-3.5-6.7-2.6c-0.4,0.1-0.7,0.3-1.1,0.5
		c-0.9-0.3-1.9,0-2.6,0.7c-0.3-0.1-0.5-0.2-0.8-0.3c-0.1,0.2-0.2,0.3-0.3,0.5c-0.1,0.2-0.1,0.4-0.2,0.6c-0.6,0-1.2,0.4-1.4,1
		c0,0.1-0.1,0.2-0.1,0.3c-0.4,0.1-0.8,0.4-1.1,0.8c-0.8-0.2-1.7,0.2-2,1c-0.1,0.2-0.1,0.3-0.1,0.5c0,0.1-0.1,0.1-0.1,0.2
		c0.1,0.4,0.4,0.7,0.7,1c0.2,0.1,0.3,0.3,0.5,0.4c-0.2,0.6,0,1.2,0.5,1.7c0.1,0.1,0.2,0.1,0.3,0.2c0,0.5,0.1,0.9,0.4,1.3
		c-0.5,0.7-0.4,1.6,0.3,2.2c0.1,0.1,0.3,0.2,0.4,0.3c0.4,0.6,1,1,1.8,1.1c0.2,0,0.4,0,0.6,0c0.1,0.3,0.3,0.5,0.5,0.7l0,0
		c-0.1,0.9,0.5,1.8,1.4,1.9c0.3,0,0.6,0,0.9-0.1c0.2,0.6,0.7,1,1.4,1.1c0.4,0.1,0.9-0.1,1.2-0.3c0.1,0,0.3,0.1,0.4,0.1
		c0,0.1,0.1,0.2,0.1,0.3c0.3,0.6,0.9,0.9,1.6,0.8c0.1,0.2,0.1,0.4,0.2,0.6c0.7,1.2,2.3,1.6,3.5,0.9c0.2-0.1,0.3-0.2,0.4-0.3
		c0.1,0.1,0.3,0.2,0.4,0.2c0.6,0.3,1.3,0.1,1.7-0.3c0.2,0.3,0.4,0.5,0.7,0.6c0.9,0.4,1.8,0,2.2-0.9l0,0c0.3-0.1,0.6-0.2,0.8-0.4
		c0.2,0.1,0.3,0.2,0.5,0.3s0.3,0.1,0.5,0.1c0.1,0.1,0.3,0.1,0.4,0.1c0.5,0.1,0.9-0.1,1.3-0.3c0.1,0,0.3,0,0.4,0s0.2-0.1,0.3-0.1
		c0.1,0.1,0.3,0.1,0.5,0.1c0.4,0.1,0.8,0,1.2-0.3c0.1,0,0.1,0,0.2,0c-0.1-0.1-0.2-0.2-0.3-0.3C189.7,194.4,189.8,194.3,189.8,194.1z
		"/>
	<path class="st4" d="M196.1,85.7c0.2-0.6,0.1-1.3-0.4-1.7c0.2-0.2,0.4-0.4,0.5-0.8c0.3-0.9-0.1-1.8-1-2.2l0,0
		c-0.1-0.3-0.2-0.5-0.4-0.8c0.1-0.2,0.2-0.4,0.3-0.6c0.3-0.7,0.2-1.5-0.2-2.1c0-0.2,0-0.3-0.1-0.5c-0.2-0.8-1-1.3-1.8-1.3
		c-0.2-0.4-0.5-0.8-0.9-1c0-0.1,0-0.2-0.1-0.3c-0.2-0.6-0.7-1.1-1.3-1.2c0-0.2,0-0.4-0.1-0.6c-0.4-1.4-1.7-2.2-3.1-1.8h-0.1
		c-0.2-0.2-0.4-0.4-0.7-0.5c-0.2-0.1-0.3-0.1-0.5-0.1c-0.5-0.4-1.2-0.5-1.8-0.4c-1.3-2.4-4.1-3.5-6.7-2.6c-0.4,0.1-0.7,0.3-1.1,0.5
		c-0.9-0.3-1.9,0-2.6,0.7c-0.3-0.1-0.5-0.2-0.8-0.3c-0.1,0.2-0.2,0.3-0.3,0.5c-0.1,0.2-0.1,0.4-0.2,0.6c-0.6,0-1.2,0.4-1.4,1
		c0,0.1-0.1,0.2-0.1,0.3c-0.4,0.1-0.8,0.4-1.1,0.8c-0.8-0.2-1.7,0.2-2,1c-0.1,0.2-0.1,0.3-0.1,0.5c0,0.1-0.1,0.1-0.1,0.2
		c0.1,0.4,0.4,0.7,0.7,1c0.2,0.1,0.3,0.3,0.5,0.4c-0.2,0.6,0,1.2,0.5,1.7c0.1,0.1,0.2,0.1,0.3,0.2c0,0.5,0.1,0.9,0.4,1.3
		c-0.5,0.7-0.4,1.6,0.3,2.2c0.1,0.1,0.3,0.2,0.4,0.3c0.4,0.6,1,1,1.8,1.1c0.2,0,0.4,0,0.6,0c0.1,0.3,0.3,0.5,0.5,0.7l0,0
		c-0.1,0.9,0.5,1.8,1.4,1.9c0.3,0,0.6,0,0.9-0.1c0.2,0.6,0.7,1,1.4,1.1c0.4,0.1,0.9-0.1,1.2-0.3c0.1,0,0.3,0.1,0.4,0.1
		c0,0.1,0.1,0.2,0.1,0.3c0.3,0.6,0.9,0.9,1.6,0.8c0.1,0.2,0.1,0.4,0.2,0.6c0.7,1.2,2.3,1.6,3.5,0.9c0.2-0.1,0.3-0.2,0.4-0.3
		c0.1,0.1,0.3,0.2,0.4,0.2c0.6,0.3,1.3,0.1,1.7-0.3c0.2,0.3,0.4,0.5,0.7,0.6c0.9,0.4,1.8,0,2.2-0.9l0,0c0.3-0.1,0.6-0.2,0.8-0.4
		c0.2,0.1,0.3,0.2,0.5,0.3c0.2,0.1,0.3,0.1,0.5,0.1c0.1,0.1,0.3,0.1,0.4,0.1c0.5,0.1,0.9-0.1,1.3-0.3c0.1,0,0.3,0,0.4,0
		s0.2-0.1,0.3-0.1c0.1,0.1,0.3,0.1,0.5,0.1c0.4,0.1,0.8,0,1.2-0.3c0.1,0,0.1,0,0.2,0c-0.1-0.1-0.2-0.2-0.3-0.3
		C196,86,196.1,85.8,196.1,85.7z"/>
	<path class="st0" d="M91.8,178.5c0.2-0.4,0.1-0.9-0.1-1.2c0.2-0.1,0.3-0.3,0.4-0.5c0.3-0.6,0-1.3-0.6-1.5l0,0
		c0-0.2-0.1-0.4-0.2-0.5c0.1-0.1,0.2-0.2,0.2-0.4c0.2-0.5,0.2-1,0-1.4c0-0.1,0-0.2,0-0.3c-0.1-0.6-0.6-1-1.2-1
		c-0.1-0.3-0.3-0.6-0.6-0.7c0-0.1,0-0.1,0-0.2c-0.1-0.4-0.4-0.8-0.8-0.9c0-0.1,0-0.3,0-0.4c-0.2-0.9-1-1.6-2-1.4h-0.1
		c-0.1-0.1-0.3-0.3-0.4-0.4c-0.1,0-0.2-0.1-0.3-0.1c-0.3-0.3-0.8-0.4-1.2-0.4c-0.7-1.7-2.6-2.6-4.4-2.2c-0.3,0.1-0.5,0.2-0.8,0.3
		c-0.6-0.2-1.3-0.1-1.8,0.3c-0.2-0.1-0.3-0.2-0.5-0.2c-0.1,0.1-0.2,0.2-0.2,0.3c-0.1,0.1-0.1,0.3-0.2,0.4c-0.4,0-0.8,0.2-1,0.6
		c0,0.1-0.1,0.1-0.1,0.2c-0.3,0-0.6,0.2-0.8,0.5c-0.5-0.2-1.1,0-1.4,0.5c-0.1,0.1-0.1,0.2-0.1,0.3l-0.1,0.1c0.1,0.3,0.2,0.5,0.4,0.7
		c0.1,0.1,0.2,0.2,0.3,0.3c-0.1,0.4-0.1,0.8,0.2,1.2c0.1,0.1,0.1,0.1,0.2,0.2c-0.1,0.3,0,0.6,0.2,0.9c-0.4,0.4-0.3,1.1,0,1.5
		c0.1,0.1,0.2,0.2,0.3,0.2c0.2,0.4,0.6,0.8,1.1,0.9c0.1,0,0.3,0,0.4,0c0,0.2,0.1,0.4,0.3,0.5l0,0c-0.1,0.6,0.2,1.2,0.9,1.4
		c0.2,0.1,0.4,0,0.6,0c0.1,0.4,0.4,0.7,0.8,0.8c0.3,0.1,0.6,0,0.8-0.1c0.1,0,0.2,0.1,0.3,0.1c0,0.1,0,0.1,0.1,0.2
		c0.2,0.4,0.6,0.6,1,0.6c0,0.1,0.1,0.3,0.1,0.4c0.4,0.9,1.4,1.2,2.3,0.8c0.1-0.1,0.2-0.1,0.3-0.2c0.1,0.1,0.2,0.1,0.3,0.2
		c0.4,0.2,0.9,0.2,1.2-0.1c0.1,0.2,0.3,0.3,0.5,0.4c0.6,0.3,1.3,0.1,1.6-0.5l0,0c0.2,0,0.4-0.1,0.5-0.2c0.1,0.1,0.2,0.2,0.3,0.2
		c0.1,0.1,0.2,0.1,0.3,0.1c0.1,0,0.2,0.1,0.3,0.1c0.3,0.1,0.6,0,0.9-0.1c0.1,0,0.2,0,0.3,0c0.1,0,0.1,0,0.2,0
		c0.1,0.1,0.2,0.1,0.3,0.1c0.3,0.1,0.6,0,0.8-0.1h0.1c-0.1-0.1-0.1-0.2-0.2-0.3C91.7,178.7,91.7,178.6,91.8,178.5z"/>
	<path class="st0" d="M85.3,169.9c0.2-0.4,0.1-0.9-0.1-1.2c0.2-0.1,0.3-0.3,0.4-0.5c0.3-0.6,0-1.3-0.6-1.5l0,0
		c0-0.2-0.1-0.4-0.2-0.5c0.1-0.1,0.2-0.2,0.2-0.4c0.2-0.5,0.2-1,0-1.4c0-0.1,0-0.2,0-0.3c-0.1-0.6-0.6-1-1.2-1
		c-0.1-0.3-0.3-0.6-0.6-0.7c0-0.1,0-0.1,0-0.2c-0.1-0.4-0.4-0.8-0.8-0.9c0-0.1,0-0.3,0-0.4c-0.2-0.9-1-1.6-2-1.4h-0.1
		c-0.1-0.1-0.3-0.3-0.4-0.4c-0.1,0-0.2-0.1-0.3-0.1c-0.3-0.3-0.8-0.4-1.2-0.4c-0.7-1.7-2.6-2.6-4.4-2.2c-0.3,0.1-0.5,0.2-0.8,0.3
		c-0.6-0.2-1.3-0.1-1.8,0.3c-0.2-0.1-0.3-0.2-0.5-0.2c-0.1,0.1-0.2,0.2-0.2,0.3c-0.1,0.1-0.1,0.3-0.1,0.4c-0.4,0-0.8,0.2-1,0.6
		c0,0.1-0.1,0.1-0.1,0.2c-0.3,0-0.6,0.2-0.8,0.5c-0.5-0.2-1.1,0-1.4,0.5c-0.1,0.1-0.1,0.2-0.1,0.3l-0.1,0.1c0.1,0.3,0.2,0.5,0.4,0.7
		c0.1,0.1,0.2,0.2,0.3,0.3c-0.1,0.4-0.1,0.8,0.2,1.2c0.1,0.1,0.1,0.1,0.2,0.2c-0.1,0.3,0,0.6,0.2,0.9c-0.4,0.4-0.3,1.1,0,1.5
		c0.1,0.1,0.2,0.2,0.3,0.2c0.2,0.4,0.6,0.8,1.1,0.9c0.1,0,0.3,0,0.4,0c0,0.2,0.1,0.4,0.3,0.5l0,0c-0.1,0.6,0.2,1.2,0.9,1.4
		c0.2,0.1,0.4,0,0.6,0c0.1,0.4,0.4,0.7,0.8,0.8c0.3,0.1,0.6,0,0.8-0.1c0.1,0,0.2,0.1,0.3,0.1c0,0.1,0,0.1,0.1,0.2
		c0.2,0.4,0.6,0.6,1,0.6c0,0.1,0.1,0.3,0.1,0.4c0.4,0.9,1.4,1.2,2.3,0.8c0.1-0.1,0.2-0.1,0.3-0.2c0.1,0.1,0.2,0.1,0.3,0.2
		c0.4,0.2,0.9,0.2,1.2-0.1c0.1,0.2,0.3,0.3,0.5,0.4c0.6,0.3,1.3,0.1,1.6-0.5l0,0c0.2,0,0.4-0.1,0.5-0.2c0.1,0.1,0.2,0.2,0.3,0.2
		c0.1,0.1,0.2,0.1,0.3,0.1c0.1,0,0.2,0.1,0.3,0.1c0.3,0.1,0.6,0,0.9-0.1c0.1,0,0.2,0,0.3,0c0.1,0,0.1,0,0.2,0
		c0.1,0.1,0.2,0.1,0.3,0.1c0.3,0.1,0.6,0,0.8-0.1h0.1c-0.1-0.1-0.1-0.2-0.2-0.3C85.2,170.1,85.2,170,85.3,169.9z"/>
	<path class="st0" d="M204.5,183.7c-0.2-0.4-0.7-0.6-1.1-0.5c0-0.2-0.1-0.4-0.2-0.6c-0.3-0.5-1.1-0.7-1.6-0.3l0,0
		c-0.2-0.1-0.4-0.1-0.6-0.1c0-0.1-0.1-0.3-0.2-0.4c-0.3-0.4-0.7-0.7-1.2-0.8c-0.1-0.1-0.2-0.1-0.3-0.2c-0.5-0.2-1.1,0-1.4,0.5
		c-0.3-0.1-0.6,0-0.9,0.1c-0.1,0-0.1-0.1-0.2-0.1c-0.4-0.2-0.9-0.1-1.2,0.2c-0.1-0.1-0.2-0.2-0.4-0.2c-0.9-0.4-1.9,0-2.3,0.9v0.1
		c-0.2,0-0.4,0.1-0.5,0.2c-0.1,0.1-0.2,0.1-0.2,0.2c-0.4,0.1-0.8,0.4-1,0.8c-1.8-0.3-3.6,0.7-4.2,2.5c-0.1,0.3-0.1,0.5-0.2,0.8
		c-0.5,0.4-0.8,1-0.7,1.7c-0.2,0.1-0.3,0.2-0.5,0.3c0,0.1,0.1,0.2,0.1,0.4c0.1,0.1,0.2,0.2,0.3,0.3c-0.2,0.3-0.3,0.8,0,1.2
		c0,0.1,0.1,0.1,0.1,0.2c-0.1,0.3-0.1,0.6,0,0.9c-0.4,0.3-0.6,1-0.3,1.5c0.1,0.1,0.1,0.2,0.2,0.3c0,0.1,0,0.1,0,0.2
		c0.3,0.1,0.5,0.1,0.8,0.1c0.1,0,0.3-0.1,0.4-0.1c0.3,0.3,0.7,0.5,1.1,0.4c0.1,0,0.1,0,0.2-0.1c0.2,0.2,0.5,0.3,0.9,0.3
		c0.2,0.5,0.7,0.9,1.3,0.8c0.1,0,0.2-0.1,0.3-0.1c0.5,0,1-0.1,1.3-0.5c0.1-0.1,0.2-0.2,0.3-0.3c0.2,0.1,0.4,0.1,0.6,0l0,0
		c0.4,0.5,1.2,0.5,1.6,0c0.2-0.2,0.3-0.3,0.3-0.6c0.4,0.1,0.8,0,1.2-0.3c0.2-0.2,0.3-0.5,0.3-0.8c0.1,0,0.1-0.1,0.2-0.2
		c0.1,0,0.1,0,0.2,0c0.4,0.1,0.9-0.2,1.1-0.5c0.1,0.1,0.3,0.1,0.4,0.1c0.9,0.1,1.8-0.6,1.9-1.5c0-0.1,0-0.2,0-0.4
		c0.1,0,0.2-0.1,0.3-0.1c0.4-0.2,0.6-0.6,0.6-1c0.2,0,0.4,0,0.6-0.1c0.6-0.3,0.7-1,0.4-1.6l0,0c0.1-0.2,0.1-0.4,0.1-0.6
		c0.1,0,0.3-0.1,0.4-0.2c0.1-0.1,0.2-0.1,0.3-0.2c0.1,0,0.2-0.1,0.2-0.2c0.2-0.2,0.3-0.5,0.4-0.8c0.1-0.1,0.1-0.2,0.2-0.2
		c0-0.1,0.1-0.1,0.1-0.2c0.1,0,0.2-0.1,0.3-0.2c0.2-0.2,0.3-0.5,0.3-0.7c0,0,0-0.1,0.1-0.1c-0.1,0-0.2,0-0.3,0
		C204.6,183.9,204.5,183.8,204.5,183.7z"/>
	<path class="st5" d="M135.9,59c-0.4-0.2-0.8-0.2-1.2,0c-0.1-0.2-0.2-0.4-0.4-0.5c-0.5-0.3-1.2-0.2-1.6,0.4l0,0
		c-0.2,0-0.4,0.1-0.6,0.2c-0.1-0.1-0.2-0.2-0.3-0.3c-0.4-0.3-1-0.3-1.4-0.2c-0.1,0-0.2,0-0.3,0c-0.6,0-1,0.5-1.1,1
		c-0.3,0.1-0.6,0.2-0.8,0.5c-0.1,0-0.1,0-0.2,0c-0.4,0-0.8,0.3-1,0.7c-0.1,0-0.3,0-0.4,0c-1,0-1.7,0.8-1.7,1.8v0.1
		c-0.2,0.1-0.3,0.2-0.4,0.4c-0.1,0.1-0.1,0.2-0.1,0.3c-0.3,0.3-0.5,0.7-0.5,1.1c-1.8,0.5-2.9,2.2-2.7,4.1c0,0.3,0.1,0.5,0.2,0.8
		c-0.3,0.6-0.3,1.3,0.1,1.8c-0.1,0.2-0.2,0.3-0.3,0.5c0.1,0.1,0.2,0.2,0.3,0.3c0.1,0.1,0.2,0.1,0.4,0.2c-0.1,0.4,0.1,0.8,0.5,1.1
		c0.1,0,0.1,0.1,0.2,0.1c0,0.3,0.1,0.6,0.4,0.8c-0.3,0.5-0.1,1.1,0.4,1.5c0.1,0.1,0.2,0.1,0.3,0.1l0.1,0.1c0.3,0,0.5-0.1,0.8-0.3
		c0.1-0.1,0.2-0.2,0.3-0.3c0.4,0.2,0.8,0.2,1.2-0.1c0.1,0,0.1-0.1,0.2-0.1c0.3,0.1,0.6,0.1,0.9-0.1c0.4,0.4,1,0.5,1.5,0.1
		c0.1-0.1,0.2-0.1,0.2-0.2c0.5-0.2,0.8-0.5,1-1c0.1-0.1,0.1-0.3,0.1-0.4c0.2,0,0.4-0.1,0.5-0.2l0,0c0.6,0.2,1.3-0.1,1.5-0.7
		c0.1-0.2,0.1-0.4,0-0.6c0.4,0,0.8-0.3,0.9-0.7c0.1-0.3,0.1-0.6,0-0.8c0-0.1,0.1-0.2,0.1-0.2c0.1,0,0.1,0,0.2-0.1
		c0.4-0.1,0.7-0.5,0.8-0.9c0.1,0,0.3,0,0.4-0.1c0.9-0.3,1.4-1.3,1.1-2.2c0-0.1-0.1-0.2-0.1-0.3c0.1-0.1,0.2-0.1,0.2-0.2
		c0.3-0.4,0.3-0.8,0.1-1.2c0.2-0.1,0.4-0.2,0.5-0.4c0.4-0.5,0.2-1.2-0.3-1.6l0,0c0-0.2,0-0.4-0.1-0.6c0.1-0.1,0.2-0.2,0.3-0.3
		c0.1-0.1,0.1-0.2,0.2-0.3s0.1-0.2,0.1-0.3c0.1-0.3,0.1-0.6,0-0.9c0-0.1,0-0.2,0-0.3s0-0.1,0-0.2c0.1-0.1,0.1-0.2,0.2-0.3
		c0.1-0.3,0.1-0.6,0-0.8v-0.1c-0.1,0-0.2,0.1-0.3,0.1C136.1,59.1,136,59.1,135.9,59z"/>
	<g>
		<path class="st6" d="M157.8,184c1.1-4.7,2.1-14,4.2-19c2.8-6.9,4.4-30.1,4.4-30.1l-1.1,0.3c0,0-3.1,13.6-4.1,16.2
			c-0.6,1.7-4.3,11.7-6.3,17.4c-0.5-28.9-6.3-71.3-6.3-71.3l-1.8,2c0,0,0.3,11.6,0.5,23.6c-0.5-1.5-0.9-2.8-0.9-3.5
			c-0.2-2.1-1.7-5.1-1.7-5.1l-0.5-0.4c0,0,1.2,10.6,2,16.1c0.5,3.5,0.9,6.4,1.1,8c-0.1,4.4-0.2,8.1-0.5,10
			c-0.5,3.7-2.9,19.9-4.9,35.3c-0.4-1.6-0.7-2.8-0.9-3.3c-0.5-2-9.6-20.7-9.6-20.7l-2.5-3.3c0,0,7.3,28.7,9.2,33.8
			c1.9,5.2-2.3,18.4-2.3,18.4c-0.3,2.2-0.4,3.9-0.4,4.9c0,8.4-3.6,38.1-3.6,38.1h29.9c-1.7-3.5-8.5-48.3-4.8-62.3
			C157.2,187.6,157.5,185.9,157.8,184z"/>
		<path class="st7" d="M153.8,188.3l0.7,11.6c4.1-26.7,4.1-27.2,6.8-33.6c2.7-6.3,3.8-25.7,3.8-25.7l-1.4,4.4c0,0-3,12.9-4,15.5
			c-1,2.5-2.1,14.6-3.7,19.4C155.2,182.4,153.8,188.3,153.8,188.3z"/>
		<path class="st7" d="M148.5,190.9c-0.9-5.2,11.9,59.9,13.2,60.5h-11.8c0,0-4.7-30.3-3.5-37.6s0-22,0-22L148.5,190.9z"/>
		<path class="st7" d="M154.8,168.9l-1.3,2c0,0,0.2-4.7,0-7.5s-1-8.7-1-8.7l-1.9-20.1l1.1-10.4c0,0,0.8,11.2,0.9,12.4
			s1.7,18.7,1.7,18.7L154.8,168.9z"/>
		<path class="st7" d="M144.9,161c0,0-1.1,17.5-0.9,18.2s-0.7,3-0.7,3l-1.6,1.2L144.9,161z"/>
		<path class="st7" d="M147.2,123.2v1.1c0,0-1.4-3.1-1.3-3.8s-0.2-2.4-0.2-2.4l0.7,2.5C146.3,120.6,146.9,122.8,147.2,123.2z"/>
		<path class="st7" d="M145.3,124.7l1.1,3.8c0,0,0.5,1.6,0.5,2.3c-0.1,0.7,0.3,3.9,0.3,3.9v3.4l-1-8L145.3,124.7z"/>
		<path class="st7" d="M137.6,182.8c0,0,0.7,5.3,1.4,5.8c0.7,0.4,0.5,7.9,0.5,7.9l-0.3,1.7l-1.4-11.5L137.6,182.8z"/>
	</g>
</g>
</svg>
